<svg width="200" height="40" viewBox="0 0 200 40" fill="none" xmlns="http://www.w3.org/2000/svg">
<path d="M31.3529 18.885C31.622 18.6749 31.8216 18.3819 31.9237 18.047C32.0259 17.712 32.0254 17.352 31.9224 17.0174C31.8194 16.6828 31.6191 16.3903 31.3494 16.181C31.0798 15.9717 30.7544 15.8561 30.4189 15.8503L23.9026 15.5924C23.8705 15.5901 23.8398 15.5781 23.8141 15.5579C23.7884 15.5377 23.7688 15.5102 23.7578 15.4786L21.506 9.10586C21.3929 8.78164 21.1874 8.50168 20.9174 8.30388C20.6473 8.10608 20.3258 8 19.9964 8C19.6669 8 19.3454 8.10608 19.0754 8.30388C18.8054 8.50168 18.5999 8.78164 18.4868 9.10586L16.2422 15.5014C16.2312 15.5329 16.2116 15.5605 16.1859 15.5807C16.1602 15.6009 16.1295 15.6128 16.0974 15.6152L9.58111 15.8731C9.2456 15.8788 8.92021 15.9945 8.65058 16.2038C8.38094 16.413 8.18058 16.7055 8.07759 17.0401C7.97459 17.3748 7.97413 17.7348 8.07626 18.0697C8.1784 18.4046 8.37801 18.6977 8.64711 18.9077L13.7588 23.1183C13.7844 23.1394 13.8035 23.1679 13.8138 23.2002C13.8241 23.2326 13.8251 23.2674 13.8167 23.3004L12.0573 29.8324C11.9661 30.165 11.975 30.519 12.0826 30.8462C12.1903 31.1734 12.3915 31.4579 12.6589 31.661C12.9263 31.8641 13.2469 31.976 13.5772 31.9813C13.9074 31.9867 14.2312 31.8854 14.5046 31.6911L19.9059 27.8978C19.9325 27.8786 19.964 27.8683 19.9964 27.8683C20.0287 27.8683 20.0603 27.8786 20.0869 27.8978L25.4882 31.6911C25.7578 31.892 26.0805 32 26.4113 32C26.7422 32 27.0649 31.892 27.3345 31.6911C27.602 31.4899 27.8034 31.2068 27.911 30.8808C28.0186 30.5547 28.0272 30.2017 27.9354 29.8703L26.1616 23.3155C26.1522 23.2826 26.1527 23.2475 26.163 23.2149C26.1734 23.1823 26.1931 23.1539 26.2195 23.1335L31.3529 18.885Z" fill="#FEC034"/>
<path d="M71.3529 18.885C71.622 18.6749 71.8216 18.3819 71.9237 18.047C72.0259 17.712 72.0254 17.352 71.9224 17.0174C71.8194 16.6828 71.6191 16.3903 71.3494 16.181C71.0798 15.9717 70.7544 15.8561 70.4189 15.8503L63.9026 15.5924C63.8705 15.5901 63.8398 15.5781 63.8141 15.5579C63.7884 15.5377 63.7688 15.5102 63.7578 15.4786L61.506 9.10586C61.3929 8.78164 61.1874 8.50168 60.9174 8.30388C60.6473 8.10608 60.3258 8 59.9964 8C59.6669 8 59.3454 8.10608 59.0754 8.30388C58.8054 8.50168 58.5999 8.78164 58.4868 9.10586L56.2422 15.5014C56.2312 15.5329 56.2116 15.5605 56.1859 15.5807C56.1602 15.6009 56.1295 15.6128 56.0974 15.6152L49.5811 15.8731C49.2456 15.8788 48.9202 15.9945 48.6506 16.2038C48.3809 16.413 48.1806 16.7055 48.0776 17.0401C47.9746 17.3748 47.9741 17.7348 48.0763 18.0697C48.1784 18.4046 48.378 18.6977 48.6471 18.9077L53.7588 23.1183C53.7844 23.1394 53.8035 23.1679 53.8138 23.2002C53.8241 23.2326 53.8251 23.2674 53.8167 23.3004L52.0573 29.8324C51.9661 30.165 51.975 30.519 52.0826 30.8462C52.1903 31.1734 52.3915 31.4579 52.6589 31.661C52.9263 31.8641 53.2469 31.976 53.5772 31.9813C53.9074 31.9867 54.2312 31.8854 54.5046 31.6911L59.9059 27.8978C59.9325 27.8786 59.964 27.8683 59.9964 27.8683C60.0287 27.8683 60.0603 27.8786 60.0869 27.8978L65.4882 31.6911C65.7578 31.892 66.0805 32 66.4113 32C66.7422 32 67.0649 31.892 67.3345 31.6911C67.602 31.4899 67.8034 31.2068 67.911 30.8808C68.0186 30.5547 68.0272 30.2017 67.9354 29.8703L66.1616 23.3155C66.1522 23.2826 66.1527 23.2475 66.163 23.2149C66.1734 23.1823 66.1931 23.1539 66.2195 23.1335L71.3529 18.885Z" fill="#FEC034"/>
<path d="M111.353 18.885C111.622 18.6749 111.822 18.3819 111.924 18.047C112.026 17.712 112.025 17.352 111.922 17.0174C111.819 16.6828 111.619 16.3903 111.349 16.181C111.08 15.9717 110.754 15.8561 110.419 15.8503L103.903 15.5924C103.871 15.5901 103.84 15.5781 103.814 15.5579C103.788 15.5377 103.769 15.5102 103.758 15.4786L101.506 9.10586C101.393 8.78164 101.187 8.50168 100.917 8.30388C100.647 8.10608 100.326 8 99.9964 8C99.6669 8 99.3454 8.10608 99.0754 8.30388C98.8054 8.50168 98.5999 8.78164 98.4868 9.10586L96.2422 15.5014C96.2312 15.5329 96.2116 15.5605 96.1859 15.5807C96.1602 15.6009 96.1295 15.6128 96.0974 15.6152L89.5811 15.8731C89.2456 15.8788 88.9202 15.9945 88.6506 16.2038C88.3809 16.413 88.1806 16.7055 88.0776 17.0401C87.9746 17.3748 87.9741 17.7348 88.0763 18.0697C88.1784 18.4046 88.378 18.6977 88.6471 18.9077L93.7588 23.1183C93.7844 23.1394 93.8035 23.1679 93.8138 23.2002C93.8241 23.2326 93.8251 23.2674 93.8167 23.3004L92.0573 29.8324C91.9661 30.165 91.975 30.519 92.0826 30.8462C92.1903 31.1734 92.3915 31.4579 92.6589 31.661C92.9263 31.8641 93.2469 31.976 93.5772 31.9813C93.9074 31.9867 94.2312 31.8854 94.5046 31.6911L99.9059 27.8978C99.9325 27.8786 99.964 27.8683 99.9964 27.8683C100.029 27.8683 100.06 27.8786 100.087 27.8978L105.488 31.6911C105.758 31.892 106.08 32 106.411 32C106.742 32 107.065 31.892 107.334 31.6911C107.602 31.4899 107.803 31.2068 107.911 30.8808C108.019 30.5547 108.027 30.2017 107.935 29.8703L106.162 23.3155C106.152 23.2826 106.153 23.2475 106.163 23.2149C106.173 23.1823 106.193 23.1539 106.219 23.1335L111.353 18.885Z" fill="#FEC034"/>
<path d="M151.353 18.885C151.622 18.6749 151.822 18.3819 151.924 18.047C152.026 17.712 152.025 17.352 151.922 17.0174C151.819 16.6828 151.619 16.3903 151.349 16.181C151.08 15.9717 150.754 15.8561 150.419 15.8503L143.903 15.5924C143.871 15.5901 143.84 15.5781 143.814 15.5579C143.788 15.5377 143.769 15.5102 143.758 15.4786L141.506 9.10586C141.393 8.78164 141.187 8.50168 140.917 8.30388C140.647 8.10608 140.326 8 139.996 8C139.667 8 139.345 8.10608 139.075 8.30388C138.805 8.50168 138.6 8.78164 138.487 9.10586L136.242 15.5014C136.231 15.5329 136.212 15.5605 136.186 15.5807C136.16 15.6009 136.129 15.6128 136.097 15.6152L129.581 15.8731C129.246 15.8788 128.92 15.9945 128.651 16.2038C128.381 16.413 128.181 16.7055 128.078 17.0401C127.975 17.3748 127.974 17.7348 128.076 18.0697C128.178 18.4046 128.378 18.6977 128.647 18.9077L133.759 23.1183C133.784 23.1394 133.804 23.1679 133.814 23.2002C133.824 23.2326 133.825 23.2674 133.817 23.3004L132.057 29.8324C131.966 30.165 131.975 30.519 132.083 30.8462C132.19 31.1734 132.391 31.4579 132.659 31.661C132.926 31.8641 133.247 31.976 133.577 31.9813C133.907 31.9867 134.231 31.8854 134.505 31.6911L139.906 27.8978C139.932 27.8786 139.964 27.8683 139.996 27.8683C140.029 27.8683 140.06 27.8786 140.087 27.8978L145.488 31.6911C145.758 31.892 146.08 32 146.411 32C146.742 32 147.065 31.892 147.334 31.6911C147.602 31.4899 147.803 31.2068 147.911 30.8808C148.019 30.5547 148.027 30.2017 147.935 29.8703L146.162 23.3155C146.152 23.2826 146.153 23.2475 146.163 23.2149C146.173 23.1823 146.193 23.1539 146.219 23.1335L151.353 18.885ZM144.764 23.6873L146.538 30.2421C146.552 30.2771 146.555 30.3163 146.545 30.353C146.536 30.3898 146.514 30.4219 146.484 30.4441C146.455 30.4663 146.419 30.4772 146.382 30.4749C146.346 30.4727 146.312 30.4574 146.285 30.4318L140.883 26.6385C140.618 26.4504 140.306 26.35 139.986 26.3502V9.52312C140.02 9.52022 140.054 9.53006 140.081 9.55089C140.109 9.57172 140.129 9.60219 140.138 9.63692L142.389 16.0172C142.498 16.3317 142.694 16.605 142.952 16.8023C143.21 16.9995 143.518 17.1118 143.837 17.1249L150.354 17.3828C150.388 17.3822 150.421 17.3931 150.449 17.4139C150.477 17.4346 150.497 17.4642 150.508 17.4981C150.518 17.5321 150.518 17.5687 150.507 17.6025C150.497 17.6364 150.476 17.6658 150.448 17.6863L145.336 21.8968C145.08 22.1006 144.889 22.3803 144.787 22.6997C144.685 23.019 144.677 23.3632 144.764 23.6873Z" fill="#FEC034"/>
<path d="M173.811 29.3268L180 25.6022L186.189 29.3684L184.551 22.3201L189.997 17.5926L182.814 16.958L180 10.3268L177.186 16.9163L170.003 17.5509L175.449 22.2947L173.811 29.3268ZM180 27.8138L172.907 32.0959C172.728 32.192 172.545 32.2358 172.359 32.2272C172.173 32.2186 172.004 32.1609 171.852 32.0543C171.701 31.9473 171.587 31.8068 171.511 31.6326C171.435 31.4584 171.425 31.2645 171.481 31.0509L173.346 22.9868L167.106 17.5413C166.937 17.4002 166.832 17.2384 166.79 17.0559C166.748 16.8731 166.755 16.692 166.811 16.5126C166.856 16.3437 166.951 16.2016 167.098 16.0863C167.244 15.9708 167.424 15.9045 167.638 15.8876L175.894 15.1601L179.106 7.53176C179.196 7.34593 179.322 7.20384 179.485 7.10551C179.649 7.00717 179.821 6.95801 180 6.95801C180.179 6.95801 180.351 7.00717 180.515 7.10551C180.678 7.20384 180.804 7.34593 180.894 7.53176L184.106 15.1601L192.362 15.8876C192.576 15.9045 192.756 15.9708 192.902 16.0863C193.048 16.2016 193.149 16.3437 193.205 16.5126C193.25 16.692 193.252 16.8731 193.21 17.0559C193.168 17.2384 193.063 17.4002 192.894 17.5413L186.654 22.9868L188.535 31.0509C188.58 31.2645 188.565 31.4584 188.489 31.6326C188.413 31.8068 188.299 31.9473 188.147 32.0543C187.996 32.1609 187.827 32.2186 187.641 32.2272C187.455 32.2358 187.272 32.192 187.093 32.0959L180 27.8138Z" fill="#FEC034"/>
</svg>
