<svg width="40" height="40" viewBox="0 0 40 40" fill="none" xmlns="http://www.w3.org/2000/svg">
<path d="M10.9077 21.4725L16.9481 27.5129C17.2335 27.7898 17.3696 28.1247 17.3563 28.5176C17.3431 28.9109 17.1938 29.267 16.9084 29.5857C16.6034 29.8694 16.2507 30.0074 15.8506 29.9997C15.45 29.9924 15.107 29.8461 14.8216 29.5607L6.57211 21.3113C6.37799 21.1171 6.234 20.9134 6.14015 20.7001C6.04672 20.4872 6 20.2568 6 20.009C6 19.7607 6.04672 19.5339 6.14015 19.3287C6.234 19.1235 6.37778 18.9243 6.57146 18.731L14.8606 10.4413C15.146 10.1558 15.4833 10.0089 15.8723 10.0003C16.261 9.99223 16.6063 10.1309 16.9084 10.4163C17.1938 10.735 17.3365 11.0912 17.3365 11.485C17.3365 11.8788 17.1857 12.2265 16.8841 12.5281L10.9077 18.5685L33.0496 18.5685C33.4621 18.5685 33.8072 18.7084 34.085 18.9883C34.3627 19.2686 34.5016 19.6165 34.5016 20.032C34.5016 20.4475 34.3627 20.7916 34.085 21.0642C33.8072 21.3364 33.4621 21.4725 33.0496 21.4725L10.9077 21.4725Z" fill="#538439"/>
</svg>
