<svg width="40" height="40" viewBox="0 0 40 40" fill="none" xmlns="http://www.w3.org/2000/svg">
<g id="Property 1=Variant2">
<path id="Vector" d="M12.1258 35.9038C11.383 35.9038 10.755 35.6425 10.2416 35.12C9.72801 34.5972 9.47121 33.9624 9.47121 33.2154C9.47121 32.4685 9.73079 31.8367 10.25 31.32C10.7694 30.8033 11.4004 30.545 12.1429 30.545C12.8851 30.545 13.5159 30.8063 14.0354 31.3288C14.5545 31.8513 14.8141 32.4861 14.8141 33.2333C14.8141 33.9803 14.5529 34.6121 14.0304 35.1287C13.5076 35.6454 12.8727 35.9038 12.1258 35.9038ZM28.2795 35.9038C27.537 35.9038 26.909 35.6425 26.3954 35.12C25.8818 34.5972 25.625 33.9624 25.625 33.2154C25.625 32.4685 25.8847 31.8367 26.4041 31.32C26.9233 30.8033 27.5541 30.545 28.2966 30.545C29.0391 30.545 29.67 30.8063 30.1891 31.3288C30.7083 31.8513 30.9679 32.4861 30.9679 33.2333C30.9679 33.9803 30.7066 34.6121 30.1841 35.1287C29.6613 35.6454 29.0265 35.9038 28.2795 35.9038ZM9.69537 8.94875L14.3429 18.6408H25.942C26.0384 18.6408 26.1266 18.6168 26.2066 18.5688C26.2869 18.5207 26.3483 18.454 26.3908 18.3687L31.327 9.3975C31.3909 9.28 31.3962 9.17583 31.3429 9.085C31.2895 8.99417 31.1987 8.94875 31.0704 8.94875H9.69537ZM8.73412 7.05792H31.8512C32.532 7.05792 33.047 7.35222 33.3962 7.94083C33.7451 8.52945 33.7529 9.12611 33.4195 9.73083L28.2975 19.0108C28.02 19.4717 27.6641 19.8404 27.23 20.1171C26.7955 20.3938 26.3268 20.5321 25.8237 20.5321H13.5L11.1987 24.785C11.124 24.9133 11.124 25.0524 11.1987 25.2021C11.2734 25.3515 11.3909 25.4263 11.5512 25.4263H30.0225C30.2908 25.4263 30.5155 25.5175 30.6966 25.7C30.8775 25.8822 30.9679 26.1086 30.9679 26.3792C30.9679 26.65 30.8775 26.874 30.6966 27.0513C30.5155 27.2285 30.2908 27.3171 30.0225 27.3171H11.83C10.7808 27.3171 10.0234 26.955 9.55787 26.2308C9.09204 25.5064 9.09621 24.7061 9.57037 23.83L12.2533 18.9454L5.95204 5.64083H3.77579C3.50718 5.64083 3.28246 5.54972 3.10162 5.3675C2.92051 5.185 2.82996 4.95847 2.82996 4.68792C2.82996 4.41736 2.92051 4.19347 3.10162 4.01625C3.28246 3.83875 3.50718 3.75 3.77579 3.75H6.41662C6.66801 3.75 6.88815 3.80917 7.07704 3.9275C7.26565 4.04583 7.40982 4.21208 7.50954 4.42625L8.73412 7.05792Z" fill="#41A50C"/>
</g>
</svg>
