<svg width="40" height="40" viewBox="0 0 40 40" fill="none" xmlns="http://www.w3.org/2000/svg">
<path d="M12.1259 35.9038C11.3831 35.9038 10.7551 35.6425 10.2417 35.12C9.72813 34.5972 9.47133 33.9624 9.47133 33.2154C9.47133 32.4685 9.73091 31.8367 10.2501 31.32C10.7695 30.8033 11.4005 30.545 12.143 30.545C12.8852 30.545 13.5161 30.8063 14.0355 31.3288C14.5547 31.8513 14.8142 32.4861 14.8142 33.2333C14.8142 33.9803 14.553 34.6121 14.0305 35.1287C13.5077 35.6454 12.8729 35.9038 12.1259 35.9038ZM28.2797 35.9038C27.5372 35.9038 26.9091 35.6425 26.3955 35.12C25.8819 34.5972 25.6251 33.9624 25.6251 33.2154C25.6251 32.4685 25.8848 31.8367 26.4042 31.32C26.9234 30.8033 27.5542 30.545 28.2967 30.545C29.0392 30.545 29.6701 30.8063 30.1892 31.3288C30.7084 31.8513 30.968 32.4861 30.968 33.2333C30.968 33.9803 30.7067 34.6121 30.1842 35.1287C29.6615 35.6454 29.0266 35.9038 28.2797 35.9038ZM9.6955 8.94875L14.343 18.6408H25.9422C26.0386 18.6408 26.1267 18.6168 26.2067 18.5688C26.287 18.5207 26.3484 18.454 26.3909 18.3687L31.3272 9.3975C31.3911 9.28 31.3963 9.17583 31.343 9.085C31.2897 8.99417 31.1988 8.94875 31.0705 8.94875H9.6955ZM8.73425 7.05792H31.8513C32.5322 7.05792 33.0472 7.35222 33.3963 7.94083C33.7452 8.52945 33.753 9.12611 33.4197 9.73083L28.2976 19.0108C28.0201 19.4717 27.6642 19.8404 27.2301 20.1171C26.7956 20.3938 26.3269 20.5321 25.8238 20.5321H13.5001L11.1988 24.785C11.1241 24.9133 11.1241 25.0524 11.1988 25.2021C11.2736 25.3515 11.3911 25.4263 11.5513 25.4263H30.0226C30.2909 25.4263 30.5156 25.5175 30.6967 25.7C30.8776 25.8822 30.968 26.1086 30.968 26.3792C30.968 26.65 30.8776 26.874 30.6967 27.0513C30.5156 27.2285 30.2909 27.3171 30.0226 27.3171H11.8301C10.7809 27.3171 10.0236 26.955 9.558 26.2308C9.09216 25.5064 9.09633 24.7061 9.5705 23.83L12.2534 18.9454L5.95216 5.64083H3.77591C3.5073 5.64083 3.28258 5.54972 3.10175 5.3675C2.92063 5.185 2.83008 4.95847 2.83008 4.68792C2.83008 4.41736 2.92063 4.19347 3.10175 4.01625C3.28258 3.83875 3.5073 3.75 3.77591 3.75H6.41675C6.66813 3.75 6.88827 3.80917 7.07716 3.9275C7.26577 4.04583 7.40994 4.21208 7.50966 4.42625L8.73425 7.05792Z" fill="#538439"/>
</svg>
