<svg width="40" height="40" viewBox="0 0 40 40" fill="none" xmlns="http://www.w3.org/2000/svg">
<path d="M13.8108 29.3268L20 25.6022L26.1891 29.3684L24.5512 22.3201L29.9966 17.5926L22.8141 16.958L20 10.3268L17.1858 16.9163L10.0033 17.5509L15.4487 22.2947L13.8108 29.3268ZM20 27.8138L12.9071 32.0959C12.7276 32.192 12.545 32.2358 12.3591 32.2272C12.173 32.2186 12.0041 32.1609 11.8525 32.0543C11.7008 31.9473 11.5871 31.8068 11.5112 31.6326C11.4354 31.4584 11.4252 31.2645 11.4808 31.0509L13.3462 22.9868L7.1058 17.5413C6.93691 17.4002 6.83164 17.2384 6.78997 17.0559C6.7483 16.8731 6.75525 16.692 6.8108 16.5126C6.8558 16.3437 6.9515 16.2016 7.09789 16.0863C7.24427 15.9708 7.42427 15.9045 7.63789 15.8876L15.8941 15.1601L19.1058 7.53176C19.1955 7.34593 19.3221 7.20384 19.4854 7.10551C19.649 7.00717 19.8205 6.95801 20 6.95801C20.1794 6.95801 20.3509 7.00717 20.5146 7.10551C20.6779 7.20384 20.8044 7.34593 20.8941 7.53176L24.1058 15.1601L32.3621 15.8876C32.5757 15.9045 32.7557 15.9708 32.9021 16.0863C33.0484 16.2016 33.1494 16.3437 33.205 16.5126C33.25 16.692 33.2516 16.8731 33.21 17.0559C33.1683 17.2384 33.063 17.4002 32.8941 17.5413L26.6537 22.9868L28.535 31.0509C28.58 31.2645 28.5646 31.4584 28.4887 31.6326C28.4129 31.8068 28.2991 31.9473 28.1475 32.0543C27.9958 32.1609 27.8269 32.2186 27.6408 32.2272C27.455 32.2358 27.2723 32.192 27.0929 32.0959L20 27.8138Z" fill="#2C4C46"/>
</svg>
