<svg width="24" height="24" viewBox="0 0 24 24" fill="none" xmlns="http://www.w3.org/2000/svg">
<path d="M7.55696 16.3293L19.6658 4.22043C19.8232 4.06667 20.0058 3.99335 20.2136 4.00047C20.4214 4.00737 20.6065 4.08597 20.769 4.23629C20.923 4.39878 21 4.58357 21 4.79065C21 4.9975 20.923 5.18229 20.769 5.34502L8.25475 17.8462C8.05732 18.0443 7.82714 18.1434 7.5642 18.1434C7.30127 18.1434 7.07086 18.0443 6.87297 17.8462L1.21381 12.2001C1.06879 12.0475 0.997537 11.8662 1.00006 11.6561C1.00282 11.446 1.07924 11.2596 1.22933 11.0969C1.39205 10.9432 1.57684 10.8663 1.78369 10.8663C1.99055 10.8663 2.17534 10.9432 2.33806 11.0969L7.55696 16.3293Z" fill="#41A50C"/>
</svg>
