<svg width="40" height="40" viewBox="0 0 40 40" fill="none" xmlns="http://www.w3.org/2000/svg">
<path fill-rule="evenodd" clip-rule="evenodd" d="M20 30C25.5228 30 30 25.5228 30 20C30 14.4771 25.5228 10 20 10C14.4771 10 10 14.4771 10 20C10 25.5228 14.4771 30 20 30ZM20 26.6667C23.6818 26.6667 26.6667 23.6818 26.6667 20C26.6667 16.3181 23.6818 13.3333 20 13.3333C16.3181 13.3333 13.3333 16.3181 13.3333 20C13.3333 23.6818 16.3181 26.6667 20 26.6667Z" fill="white"/>
<path d="M29.9997 8.33398C29.0792 8.33398 28.333 9.08018 28.333 10.0007C28.333 10.9211 29.0792 11.6673 29.9997 11.6673C30.9202 11.6673 31.6663 10.9211 31.6663 10.0007C31.6663 9.08018 30.9202 8.33398 29.9997 8.33398Z" fill="white"/>
<path fill-rule="evenodd" clip-rule="evenodd" d="M2.75644 7.12709C1.6665 9.26621 1.6665 12.0665 1.6665 17.667V22.3337C1.6665 27.9342 1.6665 30.7345 2.75644 32.8735C3.71517 34.7552 5.24497 36.285 7.1266 37.2437C9.26572 38.3337 12.066 38.3337 17.6665 38.3337H22.3332C27.9337 38.3337 30.734 38.3337 32.873 37.2437C34.7547 36.285 36.2845 34.7552 37.2432 32.8735C38.3332 30.7345 38.3332 27.9342 38.3332 22.3337V17.667C38.3332 12.0665 38.3332 9.26621 37.2432 7.12709C36.2845 5.24546 34.7547 3.71566 32.873 2.75693C30.734 1.66699 27.9337 1.66699 22.3332 1.66699H17.6665C12.066 1.66699 9.26572 1.66699 7.1266 2.75693C5.24497 3.71566 3.71517 5.24546 2.75644 7.12709ZM22.3332 5.00033H17.6665C14.8112 5.00033 12.8703 5.00293 11.37 5.12549C9.90857 5.24489 9.16124 5.46131 8.6399 5.72694C7.38549 6.36611 6.36562 7.38597 5.72645 8.64039C5.46082 9.16173 5.2444 9.90906 5.125 11.3705C5.00244 12.8707 4.99984 14.8117 4.99984 17.667V22.3337C4.99984 25.189 5.00244 27.1298 5.125 28.6302C5.2444 30.0917 5.46082 30.839 5.72645 31.3603C6.36562 32.6147 7.38549 33.6345 8.6399 34.2737C9.16124 34.5393 9.90857 34.7558 11.37 34.8752C12.8703 34.9977 14.8112 35.0003 17.6665 35.0003H22.3332C25.1885 35.0003 27.1293 34.9977 28.6297 34.8752C30.0912 34.7558 30.8385 34.5393 31.3598 34.2737C32.6142 33.6345 33.634 32.6147 34.2732 31.3603C34.5388 30.839 34.7553 30.0917 34.8747 28.6302C34.9972 27.1298 34.9998 25.189 34.9998 22.3337V17.667C34.9998 14.8117 34.9972 12.8707 34.8747 11.3705C34.7553 9.90906 34.5388 9.16173 34.2732 8.64039C33.634 7.38597 32.6142 6.36611 31.3598 5.72694C30.8385 5.46131 30.0912 5.24489 28.6297 5.12549C27.1293 5.00293 25.1885 5.00033 22.3332 5.00033Z" fill="white"/>
</svg>
