<svg width="179" height="40" viewBox="0 0 179 40" fill="none" xmlns="http://www.w3.org/2000/svg">
<g clip-path="url(#clip0_167_1847)">
<path d="M16.1248 32.9821C9.91552 32.9821 4.89067 27.9473 4.89067 21.7459C4.89067 15.5354 9.92449 10.5096 16.1248 10.5096C22.3341 10.5096 27.3589 15.5444 27.3589 21.7459C27.3589 27.9563 22.3251 32.9821 16.1248 32.9821Z" fill="white"/>
<path d="M16.2235 22.3203C5.65338 20.5612 -1.48908 10.5725 0.269613 0.000331283C10.8308 1.75936 17.9732 11.7481 16.2235 22.3203Z" fill="white"/>
<path fill-rule="evenodd" clip-rule="evenodd" d="M-0.505595 -1.08449C-0.217846 -1.29011 0.139809 -1.37299 0.488671 -1.31488C11.7763 0.565139 19.4087 11.2405 17.5389 22.538C17.4812 22.8871 17.287 23.1989 16.9992 23.4047C16.7115 23.6106 16.3537 23.6936 16.0046 23.6355C4.70841 21.7557 -2.92522 11.0803 -1.04565 -0.218465C-0.98761 -0.567339 -0.793344 -0.878862 -0.505595 -1.08449ZM15.0829 20.7257C6.43991 18.605 0.616476 10.4599 1.40906 1.59495C10.044 3.71553 15.8682 11.8601 15.0829 20.7257Z" fill="#2C4C46"/>
<path d="M43.8734 27.6252C44.2952 27.6252 44.8515 27.5534 45.5514 27.4188V25.3187H43.8017V20.4904H52.0568V32.9831H46.7717L46.2513 31.8613H46.1077C44.8964 32.8395 43.4607 33.3331 41.8007 33.3331C36.3451 33.3331 33.6084 29.6445 33.6084 22.2763C33.6084 18.5878 34.3532 15.7697 35.8337 13.8222C37.3142 11.8747 39.8177 10.8965 43.344 10.8965C45.9552 10.8965 48.4317 11.2555 50.7647 11.9824L49.6072 18.5608C46.996 17.8339 45.1207 17.4749 43.9901 17.4749C42.8595 17.4749 42.1147 17.8518 41.7469 18.5967C41.3879 19.3416 41.2085 20.616 41.2085 22.411C41.2085 24.2059 41.379 25.5252 41.7199 26.3688C42.0609 27.2124 42.7787 27.6252 43.8734 27.6252Z" fill="white"/>
<path d="M72.192 18.2463C72.192 19.6464 71.9676 20.7592 71.51 21.5849C71.0524 22.4106 70.3525 23.1465 69.3924 23.7747L72.6496 32.9827H64.9149L62.7435 25.4889H62.1871V32.9827H55.0088V11.2461H64.2778C66.9877 11.2461 68.9797 11.8115 70.2628 12.9423C71.5459 14.0731 72.192 15.8411 72.192 18.2463ZM64.0535 20.7502C64.2778 20.4361 64.3855 19.8797 64.3855 19.0899C64.3855 18.3002 64.2689 17.7527 64.0356 17.4476C63.8023 17.1424 63.4434 16.9899 62.9498 16.9899H62.0436V21.2259H62.9229C63.4613 21.2259 63.8382 21.0644 64.0625 20.7502H64.0535Z" fill="white"/>
<path d="M74.0044 21.9704C74.0044 18.0844 74.7761 15.2663 76.3284 13.5163C77.8807 11.7662 80.438 10.8867 83.9913 10.8867C87.5446 10.8867 90.0929 11.7483 91.6183 13.4804C93.1437 15.2035 93.9064 18.0126 93.9064 21.8986C93.9064 25.7846 93.1168 28.6565 91.5465 30.5232C89.9762 32.39 87.4279 33.3233 83.9195 33.3233C80.4111 33.3233 77.8807 32.3989 76.3284 30.5591C74.7761 28.7193 74.0044 25.8475 74.0044 21.9704ZM85.9384 17.8062C85.6333 17.2138 84.9783 16.9087 83.9823 16.9087C82.9863 16.9087 82.3403 17.2049 82.0531 17.7882C81.775 18.3716 81.6314 19.6191 81.6314 21.5307V23.0743C81.6314 25.0308 81.7839 26.3052 82.089 26.8885C82.3941 27.4719 83.0581 27.768 84.081 27.768C85.1039 27.768 85.75 27.4898 86.0012 26.9244C86.2525 26.359 86.3871 25.1205 86.3871 23.182V21.5755C86.3871 19.6639 86.2345 18.4075 85.9294 17.8151L85.9384 17.8062Z" fill="white"/>
<path d="M120.305 11.2461L117.999 32.9827H109.672L108.03 24.1606H107.752L106.352 32.9827H98.0249L95.333 11.2461H102.188L103.068 21.2259H103.382L104.71 11.2461H111.323L112.794 21.2259H113.037L113.701 11.2461H120.314H120.305Z" fill="white"/>
<path d="M129.996 32.9827H122.611V11.2461H129.996V32.9827Z" fill="white"/>
<path d="M151.45 32.9827H144.308L139.902 24.4119H139.66V32.9827H133.011V11.2461H140.395L144.523 20.1041H144.729V11.2461H151.45V32.9827Z" fill="white"/>
<path d="M163.842 27.6242C164.263 27.6242 164.82 27.5525 165.52 27.4178V25.3178H163.77V20.4894H172.025V32.9821H166.74L166.22 31.8603H166.076C164.865 32.8385 163.429 33.3321 161.769 33.3321C156.313 33.3321 153.577 29.6435 153.577 22.2754C153.577 18.5868 154.321 15.7687 155.802 13.8212C157.282 11.8737 159.786 10.8955 163.312 10.8955C165.923 10.8955 168.4 11.2545 170.733 11.9814L169.575 18.5599C166.964 17.8329 165.089 17.4739 163.958 17.4739C162.828 17.4739 162.083 17.8509 161.715 18.5958C161.356 19.3406 161.177 20.615 161.177 22.41C161.177 24.2049 161.347 25.5242 161.688 26.3678C162.029 27.2114 162.747 27.6242 163.842 27.6242Z" fill="white"/>
</g>
<defs>
<clipPath id="clip0_167_1847">
<rect width="178.75" height="40" fill="white"/>
</clipPath>
</defs>
</svg>
