<svg width="40" height="40" viewBox="0 0 40 40" fill="none" xmlns="http://www.w3.org/2000/svg">
<path d="M9.66699 29.4551C11.3314 28.3079 12.9874 27.4186 14.6349 26.7872C16.2824 26.1555 18.0709 25.8397 20.0003 25.8397C21.9298 25.8397 23.7225 26.1555 25.3787 26.7872C27.0345 27.4186 28.6946 28.3079 30.3591 29.4551C31.5707 28.0515 32.4709 26.5693 33.0595 25.0084C33.6481 23.4476 33.9424 21.7781 33.9424 20.0001C33.9424 16.0684 32.6017 12.7617 29.9203 10.0801C27.2387 7.39869 23.932 6.058 20.0003 6.058C16.0687 6.058 12.762 7.39869 10.0803 10.0801C7.39894 12.7617 6.05824 16.0684 6.05824 20.0001C6.05824 21.7781 6.35685 23.4476 6.95408 25.0084C7.5513 26.5693 8.4556 28.0515 9.66699 29.4551ZM19.9912 20.9455C18.4931 20.9455 17.2328 20.4313 16.2103 19.403C15.1878 18.3744 14.6766 17.1111 14.6766 15.613C14.6766 14.1147 15.1909 12.8542 16.2195 11.8317C17.2478 10.8092 18.5112 10.298 20.0095 10.298C21.5075 10.298 22.7678 10.8123 23.7903 11.8409C24.8128 12.8692 25.3241 14.1326 25.3241 15.6309C25.3241 17.1292 24.8098 18.3895 23.7812 19.4117C22.7528 20.4342 21.4895 20.9455 19.9912 20.9455ZM20.0199 35.8334C17.8252 35.8334 15.7663 35.4199 13.8432 34.593C11.9199 33.7661 10.2399 32.633 8.80324 31.1938C7.3663 29.7549 6.23435 28.0783 5.40741 26.1638C4.58046 24.2494 4.16699 22.1938 4.16699 19.9972C4.16699 17.8005 4.58046 15.7459 5.40741 13.8334C6.23435 11.9209 7.36741 10.2452 8.80658 8.80633C10.2455 7.36716 11.9221 6.23411 13.8366 5.40717C15.751 4.58022 17.8066 4.16675 20.0032 4.16675C22.1999 4.16675 24.2545 4.58022 26.167 5.40717C28.0795 6.23411 29.7552 7.36716 31.1941 8.80633C32.6332 10.2452 33.7663 11.9213 34.5932 13.8347C35.4202 15.748 35.8337 17.7966 35.8337 19.9805C35.8337 22.1752 35.4202 24.2341 34.5932 26.1572C33.7663 28.0805 32.6332 29.7605 31.1941 31.1972C29.7552 32.6341 28.0791 33.7661 26.1657 34.593C24.2524 35.4199 22.2038 35.8334 20.0199 35.8334ZM20.0003 33.9422C21.5495 33.9422 23.0773 33.6959 24.5837 33.2034C26.09 32.7109 27.5088 31.9145 28.8399 30.8142C27.5088 29.8356 26.0991 29.077 24.6107 28.5384C23.1227 28.0001 21.5859 27.7309 20.0003 27.7309C18.4148 27.7309 16.8752 27.9974 15.3816 28.5305C13.888 29.0636 12.4863 29.8248 11.1766 30.8142C12.4971 31.9145 13.9106 32.7109 15.417 33.2034C16.9234 33.6959 18.4512 33.9422 20.0003 33.9422ZM20.0024 19.0547C20.9988 19.0547 21.8196 18.7312 22.4649 18.0842C23.1105 17.4376 23.4332 16.6161 23.4332 15.6197C23.4332 14.6233 23.1098 13.8024 22.4628 13.1572C21.8162 12.5119 20.9946 12.1892 19.9982 12.1892C19.0019 12.1892 18.181 12.5126 17.5357 13.1592C16.8902 13.8062 16.5674 14.6279 16.5674 15.6242C16.5674 16.6206 16.8909 17.4415 17.5378 18.0868C18.1845 18.732 19.006 19.0547 20.0024 19.0547Z" fill="#538439"/>
</svg>
