<svg width="40" height="40" viewBox="0 0 40 40" fill="none" xmlns="http://www.w3.org/2000/svg">
<g id="Property 1=Variant2">
<path id="Vector" d="M9.66663 29.4551C11.3311 28.3079 12.987 27.4186 14.6345 26.7872C16.282 26.1555 18.0705 25.8397 20 25.8397C21.9294 25.8397 23.7222 26.1555 25.3783 26.7872C27.0341 27.4186 28.6943 28.3079 30.3587 29.4551C31.5704 28.0515 32.4705 26.5693 33.0591 25.0084C33.6477 23.4476 33.942 21.7781 33.942 20.0001C33.942 16.0684 32.6014 12.7617 29.92 10.0801C27.2383 7.39869 23.9316 6.058 20 6.058C16.0683 6.058 12.7616 7.39869 10.08 10.0801C7.39857 12.7617 6.05788 16.0684 6.05788 20.0001C6.05788 21.7781 6.35649 23.4476 6.95371 25.0084C7.55093 26.5693 8.45524 28.0515 9.66663 29.4551ZM19.9908 20.9455C18.4927 20.9455 17.2325 20.4313 16.21 19.403C15.1875 18.3744 14.6762 17.1111 14.6762 15.613C14.6762 14.1147 15.1905 12.8542 16.2191 11.8317C17.2475 10.8092 18.5108 10.298 20.0091 10.298C21.5072 10.298 22.7675 10.8123 23.79 11.8409C24.8125 12.8692 25.3237 14.1326 25.3237 15.6309C25.3237 17.1292 24.8094 18.3895 23.7808 19.4117C22.7525 20.4342 21.4891 20.9455 19.9908 20.9455ZM20.0195 35.8334C17.8248 35.8334 15.7659 35.4199 13.8429 34.593C11.9195 33.7661 10.2395 32.633 8.80288 31.1938C7.36593 29.7549 6.23399 28.0783 5.40704 26.1638C4.5801 24.2494 4.16663 22.1938 4.16663 19.9972C4.16663 17.8005 4.5801 15.7459 5.40704 13.8334C6.23399 11.9209 7.36704 10.2452 8.80621 8.80633C10.2451 7.36716 11.9218 6.23411 13.8362 5.40717C15.7507 4.58022 17.8062 4.16675 20.0029 4.16675C22.1995 4.16675 24.2541 4.58022 26.1666 5.40717C28.0791 6.23411 29.7548 7.36716 31.1937 8.80633C32.6329 10.2452 33.7659 11.9213 34.5929 13.8347C35.4198 15.748 35.8333 17.7966 35.8333 19.9805C35.8333 22.1752 35.4198 24.2341 34.5929 26.1572C33.7659 28.0805 32.6329 29.7605 31.1937 31.1972C29.7548 32.6341 28.0787 33.7661 26.1654 34.593C24.252 35.4199 22.2034 35.8334 20.0195 35.8334ZM20 33.9422C21.5491 33.9422 23.0769 33.6959 24.5833 33.2034C26.0897 32.7109 27.5084 31.9145 28.8395 30.8142C27.5084 29.8356 26.0987 29.077 24.6104 28.5384C23.1223 28.0001 21.5855 27.7309 20 27.7309C18.4144 27.7309 16.8748 27.9974 15.3812 28.5305C13.8876 29.0636 12.4859 29.8248 11.1762 30.8142C12.4968 31.9145 13.9102 32.7109 15.4166 33.2034C16.923 33.6959 18.4508 33.9422 20 33.9422ZM20.002 19.0547C20.9984 19.0547 21.8193 18.7312 22.4645 18.0842C23.1101 17.4376 23.4329 16.6161 23.4329 15.6197C23.4329 14.6233 23.1094 13.8024 22.4625 13.1572C21.8158 12.5119 20.9943 12.1892 19.9979 12.1892C19.0015 12.1892 18.1807 12.5126 17.5354 13.1592C16.8898 13.8062 16.567 14.6279 16.567 15.6242C16.567 16.6206 16.8905 17.4415 17.5375 18.0868C18.1841 18.732 19.0057 19.0547 20.002 19.0547Z" fill="#41A50C"/>
</g>
</svg>
