<svg width="80" height="80" viewBox="0 0 80 80" fill="none" xmlns="http://www.w3.org/2000/svg">
<path d="M63.9999 77.3329H55.769L57.6745 71.9343L53.7012 69.577C53.0798 69.205 52.3145 69.265 51.7772 69.7143L49.7492 71.4037C48.3198 72.5957 46.7012 73.2611 45.0678 73.329C43.2319 73.4143 41.6478 72.8104 40.7184 71.6931L35.5811 66.2478C34.5384 65.2064 33.917 65.0225 31.8544 65.8718C31.4717 66.0292 31.0558 66.3172 30.613 66.6225C29.677 67.2678 28.617 67.9998 27.2183 67.9998C24.6169 67.9998 22.9569 66.8518 22.365 66.3572L17.4783 62.1131L17.2116 61.8784L22.6663 77.3329H14.6663C13.9289 77.3329 13.333 77.9303 13.333 78.6662C13.333 79.4021 13.9293 79.9996 14.6666 79.9996H23.6077L54.8276 79.9998L63.9996 79.9996C64.737 79.9996 65.3329 79.4023 65.3329 78.6664C65.3329 77.9304 64.7373 77.3329 63.9999 77.3329Z" fill="#2C4C46"/>
<path d="M50.6665 30.6665C50.5891 30.6665 50.5105 30.6732 50.4332 30.6865L50.4319 30.6745C47.7719 30.6292 45.4573 31.5478 43.5905 33.3877C42.719 34.2462 41.9634 35.2909 41.322 36.5154V34.6412C41.1777 27.3965 41.6498 7.92764 45.456 3.40484C45.8518 6.78842 47.1224 9.48592 49.2535 11.4361C52.4815 14.392 56.6802 14.6787 58.1894 14.6787C58.5121 14.6787 58.7121 14.6654 58.7535 14.6628C59.4121 14.6148 59.9361 14.0908 59.9841 13.4308C60.0014 13.204 60.3482 7.85342 56.7588 3.93077C54.4308 1.38937 51.0441 0.0667187 46.6935 0.000156291H46.6721C46.6698 0.000156291 46.6674 0.00046879 46.6651 0.00046879C46.6618 0.00046879 46.6585 4.12197e-08 46.6552 4.12197e-08C45.5844 -0.000156208 44.6071 0.443905 43.7498 1.31719C38.2618 6.91577 38.5991 31.8678 38.6551 34.6677V36.4709C38.0188 35.2656 37.2712 34.2357 36.4106 33.3877C34.5838 31.5863 32.3385 30.6731 29.6199 30.6731C29.5732 30.6731 29.5279 30.6745 29.4826 30.6745C29.432 30.6692 29.3826 30.6665 29.3332 30.6665C15.3492 30.6665 4 43.5759 4 51.9997C4 52.5051 4.28531 52.9665 4.73859 53.193C4.92656 53.2863 5.13062 53.333 5.33328 53.333C5.61734 53.333 5.9 53.2424 6.13468 53.0651C10.4773 49.8024 22.8893 41.9051 28.1267 44.5198C29.5684 45.2388 30.399 46.8573 30.6106 49.333H15.43C13.5394 49.333 12.0006 50.8716 12.0006 52.7636V53.9022C12.0006 55.7943 13.5392 57.3329 15.43 57.3329H16.1001L24.0926 64.3263C24.442 64.6169 25.4886 65.333 27.2179 65.333C27.7859 65.333 28.4246 64.893 29.0993 64.4277C29.6367 64.0557 30.1926 63.673 30.8381 63.4077C33.3167 62.3836 35.2954 62.1903 37.494 64.3903L42.7126 69.925C43.1566 70.453 43.974 70.705 44.9566 70.665C46.274 70.6091 47.3619 69.9224 48.0419 69.3556L50.0687 67.6663C51.478 66.4916 53.4807 66.3357 55.0554 67.2796L57.6368 68.7742L58.59 69.3422L62.8289 57.3327H64.57C66.4607 57.3327 68.0006 55.7941 68.0006 53.9021V52.7635C68.0006 50.8715 66.4607 49.3329 64.57 49.3329H49.3894C49.6012 46.8571 50.4329 45.2387 51.8746 44.5196C57.1025 41.9102 69.5239 49.8022 73.8666 53.0649C74.1013 53.2422 74.3825 53.3329 74.6666 53.3329C74.8706 53.3329 75.0745 53.2861 75.2625 53.1929C75.7145 52.9661 75.9999 52.5049 75.9999 51.9996C75.9997 43.5757 64.6518 30.6665 50.6665 30.6665ZM54.7747 5.71468C56.6615 7.76405 57.1668 10.4253 57.2933 11.9706C55.7466 11.8439 53.0854 11.34 51.036 9.45326C49.336 7.88795 48.3387 5.63468 48.064 2.74265C50.9574 3.01734 53.2093 4.01468 54.7747 5.71468ZM29.3159 42.133C23.2465 39.1063 12.2773 45.6157 7.15187 49.0771C9.33046 42.0865 18.5518 33.3824 29.2439 33.3331C29.3598 33.3451 29.4798 33.3424 29.6065 33.3398C30.3212 33.3331 32.5212 33.2971 34.5385 35.2865C37.0745 37.7852 38.4865 42.6265 38.6506 49.3332H33.2879C33.032 45.7412 31.6985 43.3224 29.3159 42.133ZM65.3338 52.7638V53.9024C65.3338 54.3238 64.9911 54.6665 64.5697 54.6665H15.43C15.01 54.6665 14.6673 54.3238 14.6673 53.9024V52.7638C14.6673 52.3424 15.01 51.9997 15.43 51.9997H31.9999H39.9998H39.9999H47.9998H64.5699C64.9911 51.9997 65.3338 52.3424 65.3338 52.7638ZM50.6838 42.133C48.3024 43.3224 46.9691 45.741 46.7118 49.333H41.3491C41.5132 42.6263 42.9265 37.7851 45.4612 35.2863C47.4798 33.297 49.6718 33.3331 50.3932 33.3396C50.5212 33.3423 50.6399 33.3449 50.7572 33.3329C61.4478 33.3823 70.6692 42.0862 72.8478 49.0769C67.7197 45.6144 56.7504 39.1051 50.6838 42.133Z" fill="#2C4C46"/>
</svg>
