<svg width="60" height="80" viewBox="0 0 60 80" fill="none" xmlns="http://www.w3.org/2000/svg">
<path d="M57.9999 37.3335H31.3335V34.6923C31.3548 34.2901 31.4007 33.1329 31.3335 31.6331V29.2029C31.3363 29.1364 31.3376 29.0681 31.3362 28.997C31.3346 28.9111 31.3345 28.8292 31.3335 28.745V27.8823C31.4127 22.5561 32.839 20.8778 33.7202 20.3503C34.7226 19.7503 36.1837 19.9227 38.0669 20.863C38.7821 25.8778 45.1816 34.2703 51.2504 34.6498C51.2784 34.6512 51.3064 34.6524 51.3331 34.6524C51.6717 34.6524 51.9984 34.5231 52.2464 34.2898C52.5143 34.0392 52.6664 33.6871 52.6664 33.3192C52.6664 26.7587 46.8645 18.8519 39.6064 18.6572C36.698 17.1213 34.2566 16.9196 32.3495 18.0624C31.9834 18.2818 31.6454 18.5474 31.3335 18.8558V15.9562C36.2276 15.5662 38.5183 12.6568 39.4758 10.8559C41.2052 7.59855 41.0478 3.3706 39.0944 0.570621C38.8438 0.21203 38.4358 0 37.9999 0C36.4393 0 34.9404 0.699058 33.5907 2.03764C32.6496 0.765933 31.3956 0.000312498 30.0003 0.000312498C28.605 0.000312498 27.3511 0.765776 26.41 2.03749C25.0608 0.698902 23.5617 0.000624996 22.0009 0.000624996C21.5636 0.000624996 21.1569 0.212655 20.9062 0.569996C18.9516 3.36998 18.7956 7.59933 20.5248 10.8552C21.4825 12.6576 23.7712 15.5672 28.6668 15.9569V22.0686C28.2335 21.5269 27.7323 21.0664 27.1521 20.7189C25.2722 19.5925 22.9661 19.8039 20.2978 21.3396C12.9008 21.4644 8.66695 25.3325 8.66695 32.0003C8.66695 32.7376 9.26288 33.3335 10.0002 33.3335C17.3116 33.3335 21.6302 29.7462 21.975 23.4564C23.5753 22.6066 24.8523 22.4533 25.7828 23.0069C27.6954 24.1506 28.4928 28.2139 28.6668 31.7071V37.3334H2.00027C1.26293 37.3334 0.666992 37.9293 0.666992 38.6666V45.3333C0.666992 46.0706 1.26293 46.6666 2.00027 46.6666H6.20462L7.09352 51.9998H18.0002C18.7361 51.9998 19.3334 52.5958 19.3334 53.3331C19.3334 54.0704 18.7361 54.6664 18.0002 54.6664H7.53758L10.4268 71.9995H7.33398C6.92336 71.9995 6.53524 72.1889 6.28337 72.5128C6.03009 72.8355 5.94071 73.2569 6.04071 73.6555L7.37398 78.9887C7.52195 79.582 8.05539 79.9993 8.66726 79.9993H51.3337C51.9457 79.9993 52.4778 79.582 52.6257 78.9887L53.959 73.6555C54.0604 73.2569 53.9696 72.8355 53.7178 72.5128C53.4645 72.1888 53.0764 71.9995 52.6672 71.9995H49.5736L50.6854 65.3329H36.6669C35.931 65.3329 35.3337 64.7369 35.3337 63.9996C35.3337 63.2623 35.931 62.6663 36.6669 62.6663H51.1295L53.7957 46.6664H58.0001C58.7374 46.6664 59.3334 46.0705 59.3334 45.3332V38.6665C59.3334 37.9294 58.7373 37.3335 57.9999 37.3335ZM49.853 31.65C45.9889 30.2632 41.921 25.0327 40.9063 21.4833C45.385 22.4153 49.0836 27.1647 49.853 31.65ZM11.4185 30.6136C12.0083 25.832 15.6864 24.3408 19.2511 24.0561C18.7664 28.0595 16.1377 30.2581 11.4185 30.6136ZM37.3038 2.7653C38.2932 4.73731 38.2465 7.48667 37.1197 9.604C36.5091 10.7546 35.6318 11.6546 34.5357 12.284C34.6384 12.0335 34.729 11.7718 34.8129 11.5045C34.8141 11.5006 34.8154 11.4966 34.8166 11.4927C34.8496 11.3873 34.8815 11.2812 34.9113 11.1735C34.9294 11.1088 34.9462 11.0431 34.9632 10.9776C34.9876 10.8827 35.0118 10.7877 35.034 10.6912C35.0627 10.567 35.0894 10.4412 35.1141 10.3142C35.1227 10.2695 35.1309 10.2246 35.139 10.1796C35.1646 10.039 35.1879 9.89681 35.2085 9.75306C35.2115 9.73197 35.2151 9.71119 35.218 9.69009C35.2418 9.5176 35.2619 9.34291 35.2785 9.16635C35.2805 9.14541 35.2818 9.12447 35.2837 9.10354C35.2971 8.95057 35.3077 8.7962 35.3155 8.64041C35.3174 8.60448 35.3193 8.56854 35.3208 8.53245C35.3282 8.35667 35.3332 8.17979 35.3332 8.00073C35.3332 6.78621 35.1602 5.64387 34.8502 4.62216C35.4887 3.82076 36.3312 3.03404 37.3038 2.7653ZM30.0001 2.66701C30.7568 2.66701 31.567 3.49217 32.0932 4.81278C32.1001 4.83372 32.1052 4.85513 32.1132 4.87591C32.4276 5.68481 32.6121 6.60418 32.6559 7.55792C32.6566 7.57589 32.6574 7.59401 32.6582 7.61214C32.6634 7.74089 32.6665 7.87011 32.6665 7.99995C32.6665 8.1187 32.664 8.23698 32.6596 8.35479C32.6591 8.36839 32.6584 8.38198 32.6579 8.39557C32.6287 9.10182 32.522 9.78775 32.3513 10.4152C32.3381 10.4635 32.3246 10.5115 32.3106 10.5588C32.3035 10.5831 32.296 10.6068 32.2887 10.6309C31.7867 12.2682 30.8634 13.3274 30.0073 13.3332H29.9999C29.9987 13.3332 29.9976 13.3334 29.9964 13.3334C29.1387 13.3301 28.2128 12.2685 27.7104 10.6268C27.7039 10.6048 27.697 10.5829 27.6904 10.5607C27.6762 10.5126 27.6625 10.4637 27.6489 10.4145C27.4468 9.67056 27.3342 8.84432 27.3342 8.00042C27.3342 7.86386 27.3371 7.72761 27.3429 7.59198C27.3431 7.58823 27.3432 7.58448 27.3434 7.58089C27.3853 6.6209 27.5707 5.69246 27.8875 4.87388C27.8948 4.85481 27.8993 4.83513 27.9059 4.81575C28.4321 3.49342 29.2429 2.66701 30.0001 2.66701ZM22.8809 9.60463C21.7542 7.48605 21.7076 4.73669 22.6969 2.76467C23.6676 3.03326 24.5097 3.8206 25.1504 4.61966C24.8401 5.64184 24.6669 6.78496 24.6669 8.00026C24.6669 8.18354 24.6722 8.36448 24.6798 8.54432C24.6811 8.57151 24.6825 8.59854 24.6839 8.62573C24.692 8.79073 24.7031 8.95432 24.7175 9.11604C24.7189 9.13119 24.7198 9.14666 24.7212 9.16182C24.7378 9.3401 24.7579 9.51619 24.782 9.69009C24.785 9.71181 24.7886 9.73306 24.7917 9.75478C24.812 9.89619 24.835 10.036 24.8601 10.1743C24.8689 10.2229 24.8776 10.2713 24.887 10.3195C24.91 10.4368 24.9347 10.5529 24.9611 10.6677C24.9875 10.784 25.0162 10.8985 25.0461 11.0124C25.0597 11.064 25.0726 11.116 25.087 11.1671C25.1943 11.5546 25.3192 11.9293 25.465 12.2846C24.3689 11.6552 23.4915 10.754 22.8809 9.60463ZM50.2911 77.3333H9.70866L9.04194 74.6666H12.0002H48H50.9578L50.2911 77.3333ZM32.6668 64.0001C32.6668 64.7374 32.0695 65.3333 31.3335 65.3333H30.0003C29.2643 65.3333 28.667 64.7374 28.667 64.0001C28.667 63.2627 29.2643 62.6668 30.0003 62.6668H31.3335C32.0695 62.6666 32.6668 63.2627 32.6668 64.0001ZM26.0001 53.3334C26.0001 54.0708 25.4028 54.6667 24.6669 54.6667H23.3336C22.5976 54.6667 22.0003 54.0708 22.0003 53.3334C22.0003 52.5961 22.5976 52.0001 23.3336 52.0001H24.6669C25.4028 52.0001 26.0001 52.5961 26.0001 53.3334ZM56.6667 44.0002H52.6667H7.33367H3.3337V40.0002H56.6667V44.0002Z" fill="#2C4C46"/>
</svg>
