<svg width="80" height="80" viewBox="0 0 80 80" fill="none" xmlns="http://www.w3.org/2000/svg">
<path d="M64.0006 77.3329H56.0001L57.9056 71.9343L53.9323 69.577C53.3109 69.205 52.5456 69.265 52.0083 69.7143L49.9803 71.4037C48.5509 72.5957 46.9324 73.2611 45.2989 73.329C43.463 73.4143 41.8789 72.8104 40.9496 71.6931L35.8122 66.2478C34.7696 65.2064 34.1482 65.0225 32.0855 65.8718C31.7029 66.0292 31.2869 66.3172 30.8441 66.6225C29.9082 67.2678 28.8482 67.9998 27.4494 67.9998C24.8482 67.9998 23.188 66.8518 22.5962 66.3572L17.7094 62.1131L17.4427 61.8784L22.8974 77.3329H14.6673C13.9313 77.3329 13.334 77.9303 13.334 78.6662C13.334 79.4021 13.9313 79.9996 14.6673 79.9996H23.8388L55.0587 79.9998L64.0005 79.9996C64.7378 79.9996 65.3337 79.4023 65.3337 78.6664C65.3337 77.9304 64.7379 77.3329 64.0006 77.3329Z" fill="#2C4C46"/>
<path d="M71.9877 15.8173C71.9183 15.3133 71.5662 14.892 71.0836 14.7333C68.3686 13.8425 63.9328 14.9367 59.2031 17.6061C59.1892 17.6136 59.1755 17.6215 59.1617 17.6297C58.5602 17.9701 57.9542 18.3348 57.3464 18.7253C51.1438 22.7106 45.4691 28.7346 41.3691 35.6865C41.3677 35.6892 41.3665 35.6918 41.3651 35.6945C41.3543 35.7131 41.3444 35.7309 41.3336 35.7493V21.1645C42.3868 20.8926 43.3136 20.3054 44.0099 19.5112C45.2071 19.8282 46.5869 19.9996 48.0004 19.9996C51.8536 19.9996 56.0003 18.7476 56.0003 15.9997C56.0003 13.6075 52.8578 12.3494 49.5021 12.0636C51.6725 9.48998 53.0057 6.37858 51.3147 4.68624V4.68483C49.6224 2.99718 46.5116 4.32702 43.9365 6.49764C43.6505 3.14234 42.3924 0 40.0004 0C37.6083 0 36.3502 3.14218 36.0644 6.4978C33.4893 4.32609 30.3787 2.99468 28.6865 4.68577C26.9954 6.37796 28.3287 9.48967 30.4984 12.064C27.1427 12.3498 24.0004 13.6079 24.0004 16C24.0004 18.7479 28.1471 20 32.0004 20C33.4137 20 34.7934 19.8286 35.9905 19.5109C36.6869 20.3053 37.6138 20.8926 38.6671 21.1645V35.7484C38.6566 35.7302 38.6469 35.7127 38.6363 35.6945C38.6337 35.6918 38.6322 35.6892 38.631 35.6865C34.5323 28.7345 28.8577 22.7106 22.6551 18.7253C22.046 18.334 21.439 17.9687 20.8365 17.6276C20.8246 17.6207 20.8128 17.6137 20.8007 17.6073C16.0709 14.9364 11.6367 13.8389 8.91778 14.7334C8.43371 14.892 8.08309 15.3134 8.01247 15.8175C7.94309 16.3215 8.16715 16.8215 8.5884 17.1068C13.2525 20.2454 16.4951 26.4482 19.927 33.0162C22.8863 38.6787 25.9335 44.5052 30.236 49.3335H15.4307C13.5401 49.3335 12.0001 50.8721 12.0001 52.7641V53.9027C12.0001 55.7947 13.5401 57.3333 15.4307 57.3333H16.3307L24.3232 64.3268C24.6726 64.6174 25.7191 65.3335 27.4485 65.3335C28.0165 65.3335 28.6552 64.8935 29.3299 64.4282C29.8673 64.0561 30.4232 63.6735 31.0687 63.4082C33.5473 62.3841 35.526 62.1908 37.7246 64.3908L42.9432 69.9255C43.3872 70.4535 44.2046 70.7055 45.1872 70.6655C46.5046 70.6096 47.5925 69.9228 48.2725 69.3561L50.2993 67.6667C51.7086 66.4921 53.7113 66.3361 55.286 67.28L57.8674 68.7747L58.8206 69.3427L63.0594 57.3332H64.5706C66.4613 57.3332 68 55.7946 68 53.9026V52.764C68 50.8719 66.4614 49.3333 64.5706 49.3333H49.7647C54.0663 44.5051 57.1135 38.6787 60.0728 33.0174C63.5049 26.4495 66.7475 20.2454 71.4114 17.1068C71.8342 16.8214 72.0583 16.3214 71.9877 15.8173ZM43.669 37.0373C46.8108 31.7103 50.5607 27.471 54.2797 24.2928C52.9175 26.6907 51.6725 29.2973 50.3922 31.9785C47.8407 37.3193 45.2168 42.813 41.3529 47.3155C41.4347 41.923 41.8411 40.1824 43.669 37.0373ZM53.3003 15.9998C52.9563 16.4358 51.1297 17.3331 48.0004 17.3331C47.0207 17.3331 46.0729 17.2387 45.2272 17.0618C45.2969 16.7186 45.3336 16.3634 45.3336 15.9998C45.3336 15.9981 45.3335 15.9964 45.3335 15.9947C45.3332 15.6361 45.2969 15.2859 45.2288 14.9472C45.5685 14.8786 45.9299 14.8204 46.3093 14.7759C46.3619 14.7698 46.4136 14.7592 46.4647 14.7468C46.9605 14.6945 47.4755 14.6667 48.0002 14.6667C51.1296 14.6665 52.9563 15.5639 53.3003 15.9998ZM49.4052 6.59592C49.4705 7.14655 48.8119 9.07326 46.5985 11.2865C46.3041 11.5809 45.9897 11.8651 45.6257 12.1645C45.0611 12.2445 44.519 12.3534 44.0094 12.4883C43.8544 12.3115 43.688 12.1451 43.5111 11.9901C43.6461 11.4809 43.7551 10.9392 43.8352 10.3753C44.1344 10.01 44.4186 9.69561 44.7144 9.39998C46.9279 7.18655 48.8625 6.51593 49.4052 6.59592ZM40.0004 2.7C40.4363 3.04406 41.3336 4.87062 41.3336 7.99998C41.3336 8.52592 41.3057 9.04201 41.253 9.53873C41.2408 9.5892 41.2301 9.64014 41.2238 9.69186C41.1791 10.0704 41.121 10.4315 41.0522 10.7714C40.7119 10.7031 40.3604 10.6667 40.0002 10.6667C39.6401 10.6667 39.2883 10.7031 38.948 10.7714C38.8796 10.4315 38.8216 10.0701 38.7769 9.69108C38.7705 9.63779 38.7596 9.58529 38.7469 9.53342C38.6947 9.03842 38.6669 8.52405 38.6669 7.99998C38.6669 4.87062 39.5643 3.04406 40.0004 2.7ZM30.5957 6.59499C31.1357 6.51639 33.073 7.18561 35.2863 9.40029C35.5805 9.69592 35.866 10.0101 36.1651 10.3739C36.2452 10.9383 36.3541 11.4804 36.4893 11.99C36.3124 12.145 36.146 12.3114 35.991 12.4883C35.4816 12.3533 34.9393 12.2445 34.3748 12.1645C34.011 11.8642 33.6954 11.5812 33.401 11.2856C31.1877 9.07233 30.5304 7.14702 30.5957 6.59499ZM32.0002 17.3332C28.8709 17.3332 27.0443 16.4359 26.7002 16C27.0443 15.564 28.8709 14.6667 32.0002 14.6667C32.5259 14.6667 33.0416 14.6947 33.538 14.7472C33.5887 14.7593 33.6398 14.7701 33.6918 14.7764C34.0712 14.8211 34.4323 14.8792 34.7718 14.9478C34.7163 15.2242 34.683 15.5084 34.6723 15.7984C34.6696 15.8654 34.6669 15.9326 34.6669 16C34.6669 16.0673 34.6696 16.1345 34.6723 16.2015C34.6832 16.495 34.7169 16.7825 34.7737 17.062C33.9277 17.2389 32.9799 17.3332 32.0002 17.3332ZM37.7566 17.4356C37.7366 17.3876 37.7141 17.3404 37.6882 17.2947C37.5138 16.9826 37.403 16.6625 37.3576 16.3381C37.3571 16.3339 37.3562 16.3298 37.3557 16.3256C37.351 16.2904 37.348 16.2553 37.3449 16.22C37.339 16.1472 37.3338 16.0742 37.3338 16C37.3338 15.9258 37.339 15.8528 37.3449 15.7801C37.3482 15.7447 37.351 15.7092 37.3558 15.6739C37.3563 15.6703 37.3569 15.667 37.3574 15.6634C37.4029 15.3384 37.514 15.0176 37.6896 14.704C37.9308 14.2787 38.2821 13.9264 38.7065 13.6884C38.709 13.687 38.7113 13.6853 38.7138 13.6837C39.0774 13.4817 39.4546 13.3676 39.8337 13.3417C39.8372 13.3415 39.8408 13.3414 39.8444 13.3412C39.9485 13.3347 40.0526 13.3347 40.1566 13.3412C40.1602 13.3414 40.1638 13.3415 40.1674 13.3417C40.5488 13.3676 40.9283 13.4828 41.294 13.6873C41.2943 13.6875 41.2944 13.6876 41.2947 13.6878C41.7174 13.9262 42.0674 14.2754 42.3085 14.6984C42.3094 14.7001 42.3101 14.702 42.3111 14.7037C42.5082 15.0556 42.6232 15.4178 42.6561 15.7831C42.6619 15.8548 42.6671 15.9267 42.6671 15.9998C42.6671 16 42.6671 16 42.6671 16.0001C42.6671 16.0732 42.6619 16.1453 42.6561 16.217C42.6529 16.2542 42.6497 16.2914 42.6447 16.3286C42.6001 16.6561 42.4885 16.9795 42.3125 17.2943C42.2865 17.3404 42.264 17.3879 42.2438 17.4362C41.7693 18.175 40.9421 18.6665 40.0005 18.6665C39.0583 18.6667 38.2312 18.1748 37.7566 17.4356ZM36.3323 37.0373C38.1601 40.1824 38.5665 41.9232 38.6483 47.3162C34.7843 42.8135 32.1601 37.3195 29.6085 31.9785C28.3282 29.2973 27.0834 26.6909 25.7212 24.2929C29.4402 27.4714 33.1902 31.7106 36.3323 37.0373ZM22.2909 31.7813C19.3921 26.2346 16.6229 20.9373 12.9189 17.2493C14.6935 17.5918 16.8676 18.4203 19.2332 19.7354C22.422 23.1218 24.7446 27.9829 27.2016 33.1281C29.8843 38.7438 32.6468 44.5224 36.8674 49.3333H33.9215C28.9255 44.4759 25.5535 38.0252 22.2909 31.7813ZM65.3333 52.764V53.9026C65.3333 54.324 64.9906 54.6666 64.5706 54.6666H15.4307C15.0093 54.6666 14.6667 54.324 14.6667 53.9026V52.764C14.6667 52.3426 15.0093 51.9999 15.4307 51.9999H33.3868H40.0001H40.0008H46.6129H64.5706C64.9906 51.9999 65.3333 52.3426 65.3333 52.764ZM57.7103 31.7813C54.4463 38.0266 51.0757 44.4773 46.0797 49.3333H43.1332C47.3538 44.5224 50.1164 38.7438 52.7989 33.1281C55.256 27.9829 57.5786 23.1218 60.7674 19.7356C63.1331 18.4204 65.3075 17.592 67.0823 17.2495C63.3783 20.9373 60.6089 26.2346 57.7103 31.7813Z" fill="#2C4C46"/>
</svg>
