<svg width="80" height="80" viewBox="0 0 80 80" fill="none" xmlns="http://www.w3.org/2000/svg">
<path d="M63.3403 40.4805L63.3323 40.0257C63.3323 39.2897 62.7348 38.6922 61.9988 38.6922L61.7093 38.6869C53.5119 38.4975 48.9029 41.2221 46.5305 43.5398C43.6633 46.343 42.1618 50.2464 42.0324 55.1287C41.5616 55.4888 41.1042 55.8821 40.6707 56.3196V49.3423C41.4082 49.3423 42.0042 48.7463 42.0042 48.0088C42.0042 47.2727 41.4082 46.6753 40.6707 46.6753V39.874C41.3761 39.994 41.8815 40.0073 41.9883 40.0073H42.0042C49.9563 40.0073 56.6737 33.2754 56.6737 25.3046V5.33394C56.6737 4.87245 56.4351 4.44315 56.0415 4.20045C55.6482 3.95634 55.1573 3.93509 54.744 4.14185C53.0769 4.97528 51.5007 5.84076 50.0057 6.73171V1.3332C50.0057 0.871703 49.7671 0.442404 49.3736 0.199703C48.9802 -0.0444056 48.4893 -0.0656596 48.076 0.141098C44.8807 1.73874 41.9416 3.49376 39.325 5.35145C36.6845 3.47782 33.7625 1.7228 30.5993 0.141098C30.1859 -0.064253 29.695 -0.0429991 29.3017 0.199703C28.9083 0.442404 28.6683 0.87186 28.6683 1.3332V6.73827C27.1639 5.8381 25.5863 4.96856 23.9315 4.14185C23.5167 3.9365 23.0272 3.95775 22.6339 4.20045C22.2405 4.44315 22.0005 4.87261 22.0005 5.33394V25.3044C22.0005 33.2753 28.7177 40.0071 36.6632 40.0071H36.6739C36.7859 40.0071 37.2887 39.9965 38.0035 39.8751V54.6765C37.2674 54.6765 36.6699 55.2739 36.6699 56.01C36.6699 56.7475 37.2674 57.3435 38.0035 57.3435V64.5235C37.5714 64.0834 37.1139 63.6886 36.6446 63.3285C36.5152 58.7891 35.1123 55.159 32.4412 52.5492C30.2261 50.3874 25.9573 47.8603 18.2718 48.0297L17.9997 48.0338C17.2636 48.0338 16.6662 48.6313 16.6662 49.3673L16.6595 49.7874C16.6115 51.6637 16.4862 56.6473 20.2308 60.4894C23.2993 63.6367 28.2323 65.2556 34.8749 65.3303C35.8471 66.0305 36.8447 67.1774 37.734 68.2188L38.0035 68.5322V70.6793C37.2674 70.6793 36.6699 71.2767 36.6699 72.0128C36.6699 72.7503 37.2674 73.3464 38.0035 73.3464V78.6659C38.0035 79.402 38.6009 79.9995 39.337 79.9995C40.0745 79.9995 40.6705 79.402 40.6705 78.6659V65.3447C41.408 65.3447 42.0041 64.7486 42.0041 64.0112C42.0041 63.2751 41.408 62.6776 40.6705 62.6776V60.3105L40.8812 60.0664C41.7867 59.0102 42.803 57.846 43.7991 57.1311C50.9325 57.0578 56.2267 55.3228 59.5153 51.9502C63.5256 47.838 63.3909 42.4929 63.3403 40.4805ZM26.8454 58.6106C28.143 59.1228 30.2967 60.907 32.0238 62.5287C27.5803 62.11 24.2637 60.8043 22.1405 58.628C19.5894 56.0101 19.312 52.6615 19.312 50.6891C25.4572 50.7438 28.8218 52.7416 30.5782 54.4578C32.1344 55.9781 33.1601 57.9718 33.6547 60.3975C31.8037 58.6719 29.4939 56.7889 27.8256 56.1288C27.1469 55.862 26.3668 56.1928 26.0959 56.8795C25.8253 57.5637 26.1613 58.34 26.8454 58.6106ZM37.4501 17.2123C37.1968 17.5323 36.9553 17.855 36.722 18.1778C36.546 18.4178 36.3752 18.6578 36.2113 18.8993C36.0459 19.1447 35.8859 19.39 35.7312 19.6368C35.5258 19.9609 35.3325 20.2863 35.1484 20.6116C35.0443 20.7957 34.9431 20.9784 34.8457 21.1624C34.6403 21.5504 34.4523 21.9372 34.2762 22.3252C34.2121 22.4665 34.1456 22.608 34.0856 22.7506C33.9055 23.1721 33.7469 23.5949 33.6014 24.0188C33.56 24.1403 33.5134 24.2615 33.4747 24.383C33.336 24.8177 33.2199 25.2511 33.1187 25.6859C33.0893 25.8045 33.0546 25.9219 33.0293 26.0406C32.9372 26.4754 32.8692 26.9114 32.8133 27.3462C32.7986 27.4648 32.7733 27.5836 32.7612 27.7009C32.7026 28.2478 32.6692 28.7932 32.6692 29.3386C32.6692 29.7987 32.6906 30.2428 32.7251 30.6762C32.7358 30.8042 32.7545 30.9215 32.7678 31.0469C32.7998 31.3455 32.8358 31.6417 32.8838 31.927C32.9052 32.0457 32.9317 32.1565 32.9544 32.2724C33.0104 32.5484 33.0691 32.8205 33.1412 33.0832C33.1679 33.1792 33.1985 33.2685 33.2265 33.3618C33.3065 33.626 33.3918 33.886 33.4892 34.1379C33.5172 34.2086 33.5465 34.2739 33.5759 34.3433C33.6813 34.598 33.7919 34.8474 33.916 35.0861C33.9413 35.1341 33.9666 35.1781 33.9919 35.2234C34.124 35.4676 34.2614 35.7062 34.412 35.9329C34.4214 35.9476 34.432 35.9609 34.4414 35.9756C34.7547 36.4437 35.1056 36.8811 35.5016 37.2799C29.5191 36.6692 24.6675 31.4335 24.6675 25.3044V7.52764C26.3679 8.44374 27.9655 9.40392 29.4725 10.3935C30.002 10.7415 30.53 11.1003 31.0501 11.4696C31.0995 11.5043 31.1475 11.539 31.1969 11.5737C31.7876 11.9964 32.3718 12.4298 32.9413 12.8754H32.9439C33.9401 13.6528 34.8629 14.4383 35.7191 15.2278C35.8006 15.3025 35.8845 15.3772 35.9645 15.4519C36.2766 15.744 36.5699 16.0374 36.862 16.3294C37.018 16.4882 37.1768 16.6442 37.3274 16.8028C37.4101 16.8881 37.4834 16.9749 37.5648 17.0602C37.5234 17.1108 37.4901 17.1615 37.4501 17.2123ZM39.5105 14.8557C39.4531 14.9157 39.3892 14.9731 39.3318 15.0317C39.2612 14.9584 39.1785 14.8837 39.1065 14.8102C38.7517 14.4422 38.3743 14.0768 37.9943 13.7127C37.8275 13.5553 37.6701 13.398 37.4995 13.2406C36.9806 12.7631 36.4366 12.2898 35.8751 11.8203C35.8351 11.787 35.8004 11.7523 35.7604 11.719C36.2311 11.2669 36.7165 10.8175 37.2286 10.3735C37.2474 10.3561 37.2672 10.3402 37.2872 10.3241C37.6979 9.96809 38.1233 9.61459 38.5608 9.2653C38.6422 9.19998 38.7261 9.13466 38.8088 9.06933C39.2021 8.75865 39.6036 8.45062 40.0157 8.1465C42.2068 6.52354 44.6607 4.96997 47.3385 3.52829V8.41061C45.7756 9.45206 44.3353 10.5257 43.0071 11.6218C42.9764 11.6486 42.9471 11.6751 42.915 11.7004C42.3055 12.2059 41.7215 12.7166 41.1641 13.2328C41.0655 13.3234 40.972 13.4155 40.876 13.5075C40.4027 13.9543 39.9452 14.4036 39.5105 14.8557ZM57.6071 50.0876C55.2614 52.4948 51.5701 53.9151 46.6265 54.339C48.3815 52.6801 50.5393 50.8957 51.8301 50.3863C52.5143 50.1156 52.8503 49.3408 52.5796 48.6553C52.309 47.9711 51.5327 47.6351 50.8499 47.9058C49.1843 48.5633 46.8545 50.4743 44.9929 52.2172C45.5036 49.442 46.6359 47.1669 48.3948 45.448C50.3111 43.5744 53.9812 41.3913 60.6877 41.3458C60.6971 43.4745 60.4344 47.1897 57.6071 50.0876Z" fill="#2C4C46"/>
</svg>
