<svg width="80" height="80" viewBox="0 0 80 80" fill="none" xmlns="http://www.w3.org/2000/svg">
<g clip-path="url(#clip0_167_3104)">
<path d="M64.5692 49.3332H59.8308C59.3358 47.4172 57.8001 45.9153 55.8642 45.4692C55.3189 43.1025 53.1962 41.3333 50.6669 41.3333C48.3055 41.3333 46.2549 42.8492 45.5655 45.1065C45.5269 45.2359 45.3708 45.3333 45.2041 45.3333C45.0082 45.3333 44.8735 45.1506 44.8241 45.0719C44.8241 45.0704 44.8227 45.0704 44.8227 45.0704C44.108 43.9225 42.7307 43.0772 41.1933 42.7811C41.104 42.4006 40.9732 42.0361 40.8071 41.6916C41.0032 40.9469 41.1418 40.1934 41.2319 39.44C42.7691 38.3667 44.0882 36.8005 44.7264 35.9778C48.8622 35.7288 53.3745 33.1922 53.3745 26.6668C53.3745 25.9308 52.7786 25.3335 52.0413 25.3335C46.0878 25.3335 42.8719 28.403 42.7155 34.2177C42.4429 34.5753 41.951 35.1902 41.3413 35.8238C41.2168 33.2722 40.7236 30.8982 40.3166 29.0799C41.8849 28.5702 43.0849 27.3297 43.515 25.7477C45.2364 26.3304 47.0777 25.9183 48.4977 24.4983C49.9177 23.0798 50.3297 21.2371 49.747 19.5157C51.8377 18.9477 53.3337 17.0384 53.3337 14.709C53.3337 12.3823 51.8405 10.4743 49.7538 9.9023C50.3564 8.15434 49.9417 6.27966 48.4978 4.83561C47.0499 3.38764 45.5538 3.23561 44.5564 3.36764C44.2017 3.41296 43.8485 3.50092 43.5032 3.62764C42.9124 1.53734 40.9871 0 38.7083 0C36.4269 0 34.4977 1.54265 33.911 3.63999C32.2937 3.03999 30.4416 3.22936 28.8351 4.83592C27.2284 6.44263 27.0392 8.2945 27.6392 9.91184C25.5432 10.4986 24.0006 12.4265 24.0006 14.7092C24.0006 16.9892 25.5406 18.9171 27.6353 19.5051C27.0073 21.2371 27.4006 23.0637 28.8352 24.4983C30.3793 26.0424 32.2579 26.2769 33.8952 25.7251C34.3671 27.4871 35.7901 28.8271 37.6149 29.2152C38.1754 31.6972 38.9366 35.1291 38.6494 38.5281C38.6466 38.5552 38.644 38.582 38.6429 38.6092C38.6215 38.8478 38.5941 39.0859 38.5619 39.3238C37.8012 38.9053 36.9282 38.6664 36.0004 38.6664C35.0977 38.6664 34.2324 38.8905 33.463 39.3117C32.4684 38.0864 30.9577 37.3331 29.3337 37.3331C26.8043 37.3331 24.679 39.1038 24.1364 41.4705C23.1231 41.7051 22.1884 42.2331 21.4643 42.9958C20.447 44.0678 19.9311 45.4717 20.0084 46.9504C20.0537 47.8178 20.3148 48.627 20.7392 49.3331H15.4306C13.54 49.3331 12 50.8717 12 52.7637V53.9023C12 55.7943 13.54 57.3329 15.4306 57.3329H16.492L24.4845 64.3263C24.8339 64.6169 25.8804 65.333 27.6098 65.333C28.1777 65.333 28.8165 64.893 29.4912 64.4277C30.0285 64.0557 30.5845 63.673 31.2299 63.4077C33.7085 62.3837 35.6872 62.1904 37.8858 64.3904L43.1044 69.925C43.5485 70.453 44.3658 70.705 45.3485 70.665C46.6658 70.6091 47.7538 69.9224 48.4338 69.3557L50.4605 67.6663C51.8698 66.4916 53.8725 66.3357 55.4472 67.2796L58.0286 68.7743L58.9818 69.3422L63.2206 57.3327H64.569C66.461 57.3327 67.9996 55.7942 67.9996 53.9021V52.7635C67.9998 50.872 66.461 49.3332 64.5692 49.3332ZM50.6134 28.0749C50.0841 31.7922 47.4455 32.9163 45.4521 33.2255C45.8121 30.071 47.4535 28.4322 50.6134 28.0749ZM36.3938 24.4358C36.3938 24.2358 36.4618 23.9344 36.4924 23.7732C36.6804 22.7985 36.1604 22.3626 35.8338 22.1891C35.6365 22.0851 35.4232 22.0344 35.2098 22.0344C34.8644 22.0344 34.5218 22.1691 34.2657 22.4251C33.4057 23.2865 31.9604 23.853 30.7204 22.613C29.4031 21.2944 30.1404 20.0037 30.9924 19.1516C31.4057 18.737 31.5018 18.101 31.2284 17.5837C31.0551 17.257 30.6204 16.7357 29.6457 16.9237C29.4831 16.9557 29.1817 17.0237 28.9817 17.0237C27.7057 17.0237 26.667 15.9851 26.667 14.709C26.667 13.4331 27.7056 12.3943 28.9817 12.3943C29.1802 12.3943 29.479 12.461 29.6416 12.4929C30.6137 12.6743 31.0484 12.165 31.223 11.8435C31.503 11.3248 31.4098 10.6821 30.9924 10.2648C30.4191 9.69152 29.2431 8.19809 30.7204 6.72076C32.1991 5.24201 33.6924 6.41935 34.2657 6.99138C34.6777 7.40341 35.3071 7.50075 35.823 7.23278C36.1537 7.06075 36.6816 6.62607 36.4924 5.64482C36.4618 5.48342 36.3938 5.18076 36.3938 4.98076C36.3938 3.70483 37.4324 2.66608 38.7085 2.66608C39.9846 2.66608 41.0232 3.70467 41.0232 4.98076C41.0232 5.17935 40.9565 5.4781 40.9246 5.64217C40.7379 6.6181 41.2579 7.05544 41.5846 7.22747C42.1032 7.50341 42.7379 7.40606 43.1525 6.99153C43.7111 6.43294 44.3311 6.08482 44.8978 6.01154C45.4938 5.93013 46.0591 6.16623 46.6125 6.72091C48.1272 8.23559 46.9872 9.70356 46.4258 10.265C46.0111 10.6796 45.9152 11.3156 46.1899 11.8329C46.3631 12.1596 46.7966 12.6823 47.7752 12.4929C47.9378 12.4609 48.2378 12.3943 48.4366 12.3943C49.6872 12.3943 50.6672 13.4117 50.6672 14.709C50.6672 16.0063 49.6872 17.0237 48.4366 17.0237C48.2366 17.0237 47.9325 16.9543 47.7713 16.9237C46.7872 16.7331 46.3553 17.2637 46.1846 17.5931C45.9166 18.1104 46.0139 18.741 46.426 19.1516C46.8527 19.5796 48.1313 21.0943 46.6127 22.613C45.0953 24.129 43.5794 22.853 43.1527 22.4251C42.7353 22.0091 42.0941 21.913 41.5741 22.1944C41.2527 22.3691 40.7394 22.8065 40.9247 23.7771C40.9568 23.9397 41.0233 24.2385 41.0233 24.4358C41.0233 25.6865 40.006 26.6665 38.7086 26.6665C37.4113 26.6665 36.3938 25.6866 36.3938 24.4358ZM22.6709 46.812C22.6323 46.0706 22.8895 45.3667 23.3989 44.832C23.9068 44.2961 24.5948 44 25.3335 44C26.0695 44 26.6668 43.4026 26.6668 42.6667C26.6668 41.1961 27.8627 40 29.3335 40C30.4376 40 31.4376 40.7027 31.8229 41.7494C31.9829 42.1853 32.3588 42.5053 32.8123 42.5961C33.2682 42.6908 33.7363 42.5361 34.0523 42.1961C34.5682 41.6401 35.2602 41.3334 36.0002 41.3334C37.4708 41.3334 38.6669 42.5294 38.6669 44.0001C38.6669 44.7361 39.2643 45.3334 40.0002 45.3334C41.1549 45.3334 42.2082 45.9161 42.5602 46.4801C43.1522 47.4322 44.1402 48.0001 45.2042 48.0001C46.5375 48.0001 47.7363 47.1308 48.1163 45.8869C48.4603 44.7575 49.4856 44.0001 50.6669 44.0001C52.1375 44.0001 53.3336 45.1961 53.3336 46.6669C53.3336 47.4028 53.9309 48.0001 54.6669 48.0001C55.6522 48.0001 56.5136 48.5375 56.9748 49.3334H25.5603C24.0403 49.3332 22.7442 48.2026 22.6709 46.812ZM65.3331 53.9026C65.3331 54.324 64.9904 54.6667 64.569 54.6667H15.4306C15.0092 54.6667 14.6666 54.324 14.6666 53.9026V52.764C14.6666 52.3426 15.0092 52 15.4306 52H25.5601H58.6667H64.569C64.9904 52 65.3331 52.3426 65.3331 52.764V53.9026Z" fill="#2C4C46"/>
<path d="M64.0005 77.3329H56.1615L58.0669 71.9343L54.0937 69.577C53.4723 69.205 52.707 69.265 52.1696 69.7143L50.1417 71.4037C48.7123 72.5957 47.0937 73.261 45.4603 73.329C43.6243 73.4143 42.0403 72.8104 41.1109 71.6931L35.9736 66.2478C34.9309 65.2064 34.3095 65.0225 32.2469 65.8718C31.8642 66.0292 31.4483 66.3172 31.0055 66.6225C30.0695 67.2678 29.0095 67.9998 27.6108 67.9998C25.0096 67.9998 23.3494 66.8518 22.7575 66.3572L17.8708 62.1131L17.6041 61.8784L23.0588 77.3329H14.6673C13.9313 77.3329 13.334 77.9302 13.334 78.6662C13.334 79.4021 13.9313 79.9994 14.6673 79.9994H24.0002L55.2201 79.9996L64.0002 79.9994C64.7361 79.9994 65.3335 79.4021 65.3335 78.6662C65.3335 77.9302 64.7364 77.3329 64.0005 77.3329Z" fill="#2C4C46"/>
<path d="M44.0415 14.6668C44.0415 11.7254 41.6495 9.3335 38.7083 9.3335C35.767 9.3335 33.375 11.7255 33.375 14.6668C33.375 17.6082 35.767 20 38.7083 20C41.6495 20 44.0415 17.608 44.0415 14.6668ZM36.0416 14.6668C36.0416 13.1961 37.2375 12 38.7083 12C40.1789 12 41.375 13.196 41.375 14.6668C41.375 16.1374 40.179 17.3335 38.7083 17.3335C37.2375 17.3333 36.0416 16.1374 36.0416 14.6668Z" fill="#2C4C46"/>
</g>
<defs>
<clipPath id="clip0_167_3104">
<rect width="80" height="80" fill="white"/>
</clipPath>
</defs>
</svg>
