<svg width="80" height="80" viewBox="0 0 80 80" fill="none" xmlns="http://www.w3.org/2000/svg">
<path d="M59.0569 30.2761C59.3169 30.5361 59.6583 30.6667 59.9996 30.6667C60.3408 30.6667 60.6822 30.5361 60.9422 30.2761L64.9422 26.2761C65.4636 25.7547 65.4636 24.9121 64.9422 24.3908L40.9423 0.390936C40.4209 -0.130312 39.5782 -0.130312 39.057 0.390936L15.0571 24.3908C14.5357 24.9122 14.5357 25.7549 15.0571 26.2761L19.0571 30.2761C19.5785 30.7975 20.4211 30.7975 20.9424 30.2761L22.6664 28.5521V53.3334H18.6664C17.9291 53.3334 17.3332 53.9307 17.3332 54.6666V59.9999C17.3332 60.7358 17.9291 61.3332 18.6664 61.3332H35.9996V78.6664C35.9996 79.4023 36.5956 79.9997 37.3329 79.9997H42.6662C43.4035 79.9997 43.9995 79.4023 43.9995 78.6664V61.3332H61.3327C62.07 61.3332 62.666 60.7358 62.666 59.9999V54.6666C62.666 53.9307 62.07 53.3334 61.3327 53.3334H57.3327V28.5521L59.0569 30.2761ZM59.9996 55.9999V58.6666H42.6663H37.3331H19.9997V55.9999H23.9997H55.9996H59.9996ZM39.9996 37.3333C35.5876 37.3333 31.9997 33.7453 31.9997 29.3333C31.9997 24.9213 35.5876 21.3333 39.9996 21.3333C44.4116 21.3333 47.9996 24.9213 47.9996 29.3333C47.9996 33.7453 44.4116 37.3333 39.9996 37.3333ZM46.6663 46.6667C46.6663 47.4026 46.0704 48 45.333 48H34.6664C33.929 48 33.3331 47.4026 33.3331 46.6667C33.3331 45.9307 33.929 45.3334 34.6664 45.3334H45.333C46.0702 45.3332 46.6663 45.9306 46.6663 46.6667ZM56.9422 24.3907L40.9423 8.39075C40.6823 8.13075 40.3409 8.00012 39.9996 8.00012C39.6582 8.00012 39.317 8.13075 39.057 8.39075L23.057 24.3907L19.9997 27.448L17.885 25.3333L39.9996 3.21889L62.1142 25.3335L59.9996 27.4482L56.9422 24.3907Z" fill="#2C4C46"/>
<path d="M39.9993 24C37.0579 24 34.666 26.392 34.666 29.3333C34.666 32.2745 37.058 34.6665 39.9993 34.6665C42.9405 34.6665 45.3325 32.2745 45.3325 29.3333C45.3325 26.392 42.9407 24 39.9993 24Z" fill="#2C4C46"/>
</svg>
