<svg width="80" height="80" viewBox="0 0 80 80" fill="none" xmlns="http://www.w3.org/2000/svg">
<g clip-path="url(#clip0_167_3098)">
<path d="M64.5712 49.3311H59.8316C59.3366 47.4148 57.8009 45.9129 55.8648 45.4667C55.3194 43.0999 53.1952 41.3305 50.6671 41.3305C48.3055 41.3305 46.2548 42.8466 45.5667 45.1014C45.5267 45.2347 45.372 45.3308 45.2027 45.3308C45.0012 45.3308 44.8612 45.1308 44.824 45.0694C44.824 45.0694 44.824 45.068 44.8226 45.068C44.131 43.9563 42.8136 43.1281 41.333 42.8087V34.6632C41.333 29.2561 44.3393 22.7686 48.0916 21.5526C48.8557 28.1843 54.5017 33.3515 61.3347 33.3515C62.0707 33.3515 62.6681 32.7542 62.6681 32.0182C62.6681 24.6725 56.6961 18.6957 49.3543 18.6844C49.3473 18.6843 49.3404 18.6833 49.3334 18.6833C46.1062 18.6833 43.2686 21.1623 41.3329 24.6017V14.6873C41.3505 14.3534 41.385 13.4997 41.358 12.362C41.5649 7.68728 42.8858 6.1539 43.7197 5.6548C44.6551 5.09383 45.991 5.20852 47.6947 5.98951C47.5595 8.66673 51.0173 12.3848 52.2766 13.6441C52.9019 14.2682 57.6263 18.8871 60.6904 18.8871C61.2999 18.8871 61.8452 18.7044 62.2773 18.2724C63.2494 17.299 63.1253 15.6242 61.9066 13.292C60.9786 11.5172 59.5291 9.58241 57.9331 7.98762C56.3397 6.39157 54.5649 5.10211 52.938 4.35534C51.2512 3.5806 50.1006 3.55247 49.322 3.81343C46.539 2.41239 44.1926 2.26113 42.3503 3.36652C41.5555 3.84265 40.8883 4.52941 40.3493 5.42322C39.7248 3.43793 38.7294 1.65859 37.1513 0.714307C35.3578 -0.360297 33.1754 -0.218413 30.6628 1.12965C28.734 0.465384 25.6396 1.90673 22.5034 5.04288C20.9086 6.63768 19.6459 8.35639 18.9473 9.88322C17.7778 12.4381 18.514 13.7288 19.0552 14.2715C19.4367 14.6529 20.0259 14.9956 20.9113 14.9956C21.5699 14.9956 22.3928 14.8062 23.4168 14.3023C24.8902 13.5755 26.5317 12.3315 28.1598 10.7006C29.7852 9.07519 31.012 7.45242 31.7053 6.00561C32.26 4.85053 32.3927 3.95531 32.321 3.27417C33.7602 2.58115 34.9207 2.48802 35.7819 3.00103C37.8059 4.21236 38.5816 8.69157 38.6906 12.3059C38.6627 12.9562 38.6553 13.6385 38.6686 14.3524L38.6711 14.5334C38.6702 14.5515 38.6695 14.5704 38.6686 14.5884C38.6681 14.5959 38.6688 14.6031 38.6685 14.6106C38.6678 14.6278 38.6658 14.6445 38.6658 14.6617V27.8273C36.9401 24.9389 34.4271 22.9163 31.2742 22.6849C28.3629 19.9095 24.573 18.4519 20.848 18.6816C17.4037 18.8896 14.3596 20.4871 12.2754 23.1807C11.8874 23.682 11.9074 24.3861 12.3207 24.8661C14.7168 27.6463 17.9317 29.2317 21.372 29.3317C21.492 29.3344 21.6106 29.337 21.7293 29.337C25.1311 29.337 28.4412 27.9337 31.1492 25.3516C35.8056 25.7709 38.6656 32.2051 38.6656 38.1811V39.3801C37.8807 38.925 36.9701 38.6635 35.9987 38.6635C35.1107 38.6635 34.2386 38.8914 33.4653 39.3141C32.4705 38.0861 30.9571 37.3299 29.3317 37.3299C26.8022 37.3299 24.6781 39.1007 24.134 41.4688C23.1219 41.7021 22.1872 42.2301 21.4632 42.9916C20.4458 44.0637 19.9272 45.4691 20.0045 46.9478C20.0498 47.8152 20.311 48.6245 20.7354 49.3306H15.4272C13.5364 49.3306 11.9976 50.8693 11.9976 52.7615V53.9001C11.9976 55.7923 13.5363 57.331 15.4272 57.331H16.3279L24.3209 64.3249C24.6703 64.6155 25.7169 65.3317 27.4464 65.3317C28.0144 65.3317 28.6532 64.8917 29.328 64.4263C29.8654 64.0543 30.4213 63.6716 31.0668 63.4062C33.5456 62.3821 35.5245 62.1888 37.7232 64.389L42.9422 69.924C43.3863 70.452 44.2037 70.7041 45.1864 70.6641C46.5038 70.6081 47.5919 69.9214 48.2719 69.3546L50.2988 67.6651C51.7083 66.4904 53.711 66.3344 55.2858 67.2784L57.8674 68.7732L58.8208 69.3412L63.0598 57.3308H64.5705C66.4613 57.3308 68.0014 55.7921 68.0014 53.9V52.7613C68.002 50.8699 66.4619 49.3311 64.5712 49.3311ZM59.9055 30.589C55.1638 29.9516 51.4009 26.1873 50.7622 21.4457C55.5052 22.0831 59.2681 25.8474 59.9055 30.589ZM56.0478 9.87306C58.4933 12.3173 59.9401 14.9708 60.216 16.1521C59.1439 15.8094 56.7799 14.3746 54.1623 11.7585C51.5728 9.1677 50.4968 7.11553 50.378 6.33016C51.1834 6.37282 53.4663 7.29163 56.0478 9.87306ZM26.2745 8.81533C23.5437 11.5461 21.6035 12.3035 20.9794 12.3289C20.9674 11.6447 21.8048 9.51272 24.389 6.92848C27.0105 4.3069 28.972 3.62685 29.6214 3.62685C29.6441 3.62685 29.6628 3.62685 29.6828 3.62951C29.6935 4.19501 28.9961 6.09374 26.2745 8.81533ZM21.4499 26.6666C19.0884 26.5986 16.9243 25.6665 15.1336 23.9596C16.683 22.4009 18.7324 21.4821 21.0087 21.3448C23.7168 21.1807 26.449 22.1262 28.7025 23.9676C26.5436 25.7904 23.9928 26.7505 21.4499 26.6666ZM22.6692 46.8096C22.6306 46.0682 22.8893 45.3642 23.3987 44.8295C23.9067 44.2921 24.5934 43.9974 25.3321 43.9974C26.0695 43.9974 26.6654 43.4 26.6654 42.6641C26.6654 41.1933 27.8615 39.9972 29.3323 39.9972C30.4365 39.9972 31.4366 40.6999 31.8219 41.7466C31.9819 42.1826 32.3579 42.5026 32.8113 42.5934C33.2687 42.6881 33.7355 42.5334 34.0514 42.1934C34.5674 41.636 35.2582 41.3307 35.9995 41.3307C37.4702 41.3307 38.6664 42.5267 38.6664 43.9976C38.6664 44.7336 39.2624 45.3309 39.9998 45.3309C41.1546 45.3309 42.2079 45.9137 42.56 46.4777C43.1506 47.4298 44.1388 47.9979 45.2028 47.9979C46.5362 47.9979 47.7336 47.1298 48.1163 45.883C48.4616 44.755 49.4858 43.9976 50.6671 43.9976C52.1378 43.9976 53.334 45.1936 53.334 46.6645C53.334 47.4005 53.93 47.9979 54.6674 47.9979C55.6527 47.9979 56.5155 48.5352 56.9755 49.3312H25.5588C24.0373 49.3311 22.7425 48.2004 22.6692 46.8096ZM65.3353 53.9008C65.3353 54.3222 64.9926 54.6649 64.5712 54.6649H15.4278C15.0078 54.6649 14.6651 54.3222 14.6651 53.9008V52.7621C14.6651 52.3406 15.0078 51.998 15.4278 51.998H25.5588H58.6678H64.5713C64.9928 51.998 65.3354 52.3406 65.3354 52.7621L65.3353 53.9008Z" fill="#2C4C46"/>
<path d="M64.0012 77.333H56.0002L57.9058 71.9341L53.9323 69.5766C53.3108 69.2045 52.5455 69.2645 52.0081 69.7139L49.98 71.4034C48.5505 72.5955 46.9318 73.2609 45.2982 73.3288C43.4622 73.4142 41.878 72.8102 40.9486 71.6928L35.8109 66.2471C34.7681 65.2056 34.1467 65.0217 32.0839 65.8711C31.7012 66.0285 31.2853 66.3165 30.8424 66.6218C29.9064 67.2672 28.8463 67.9993 27.4475 67.9993C24.8461 67.9993 23.1858 66.8512 22.5939 66.3565L17.7068 62.1121L17.4401 61.8774L22.8951 77.333H14.6644C13.927 77.333 13.3311 77.9304 13.3311 78.6664C13.3311 79.4024 13.927 79.9998 14.6644 79.9998H23.8366L55.0588 79.9999L64.0011 79.9998C64.7385 79.9998 65.3345 79.4024 65.3345 78.6664C65.3345 77.9304 64.7386 77.333 64.0012 77.333Z" fill="#2C4C46"/>
</g>
<defs>
<clipPath id="clip0_167_3098">
<rect width="80" height="80" fill="white"/>
</clipPath>
</defs>
</svg>
