<svg width="80" height="80" viewBox="0 0 80 80" fill="none" xmlns="http://www.w3.org/2000/svg">
<path d="M58.3228 8.04019C57.6095 7.86285 56.8842 8.29613 56.7054 9.00957L55.3721 14.3428C55.1936 15.0575 55.6281 15.7814 56.3415 15.9602C56.4509 15.9881 56.5589 16.0002 56.6668 16.0002C57.2642 16.0002 57.8068 15.5961 57.9589 14.9908L59.2921 9.65753C59.4707 8.943 59.036 8.21894 58.3228 8.04019Z" fill="#2C4C46"/>
<path d="M75.1925 14.0708C74.8631 13.4123 74.0631 13.1429 73.4031 13.4735L72.4764 13.9368C72.3253 12.9118 72.0862 11.9023 71.7562 10.9196C71.0926 8.94384 70.1047 7.18572 68.8469 5.70432L70.9417 3.60948C71.4631 3.08808 71.4631 2.24542 70.9417 1.72418C70.4203 1.20277 69.5776 1.20277 69.0564 1.72418L66.9409 3.83964C65.9073 3.0012 64.757 2.30777 63.5069 1.78105C59.3805 0.041215 54.8302 0.418714 50.8769 2.42777L49.8085 0.646838C49.4299 0.016215 48.6112 -0.189097 47.9791 0.190902C47.3485 0.569494 47.1432 1.38824 47.5232 2.02027L48.6001 3.81495C45.9048 5.74963 43.6393 8.50899 42.2071 11.9037C41.5077 13.5632 40.8217 15.4588 40.6712 18.7143C39.1143 18.8213 37.6018 19.1133 36.1521 19.574L35.2646 16.9115C35.0314 16.2141 34.2779 15.8341 33.5779 16.0688C32.8793 16.3021 32.5006 17.0568 32.7339 17.7555L33.6668 20.5541C31.8561 21.4127 30.1737 22.5433 28.6595 23.8978C26.782 22.6333 25.8328 22.0936 24.7716 21.6621C23.1155 20.9891 21.4119 20.6739 19.7599 20.6743L19.3061 18.4055C19.1635 17.6841 18.4647 17.2149 17.7382 17.3602C17.0155 17.5043 16.5475 18.2069 16.6928 18.9282L17.0985 20.9566C13.6505 21.7055 10.7236 23.9041 9.39428 27.1702C9.10834 27.8736 8.90803 28.5981 8.78959 29.3334H5.99929C5.26336 29.3334 4.66602 29.9308 4.66602 30.6667C4.66602 31.4027 5.26336 32 5.99929 32H8.72147C8.85694 33.2573 9.22568 34.514 9.82756 35.7247C10.6129 37.3039 11.744 38.6945 13.1324 39.8226L11.5994 41.8665C11.158 42.4559 11.2768 43.2918 11.8661 43.7332C12.1061 43.9132 12.3875 44 12.6647 44C13.07 44 13.47 43.8159 13.7327 43.4667L15.3652 41.29C15.7522 41.4923 16.1503 41.6792 16.5608 41.8461C17.1275 42.0767 17.7008 42.2648 18.4249 42.4993C19.0316 42.6961 19.7527 42.931 20.6811 43.2645C20.7453 45.2603 21.0352 47.2926 21.5472 49.3332H17.4299C15.5393 49.3332 13.9993 50.8718 13.9993 52.7638V53.9024C13.9993 55.7944 15.5393 57.333 17.4299 57.333H18.8813L26.8737 64.3264C27.2231 64.6171 28.2697 65.3332 29.999 65.3332C30.567 65.3332 31.2058 64.8932 31.8804 64.4278C32.4178 64.0558 32.9737 63.6732 33.619 63.4078C36.0976 62.3838 38.0764 62.1905 40.2749 64.3905L45.4935 69.9252C45.9376 70.4531 46.7549 70.7052 47.7376 70.6652C49.0549 70.6092 50.1429 69.9225 50.8229 69.3558L52.8496 67.6664C54.2589 66.4917 56.2616 66.3358 57.8363 67.2797L60.4177 68.7744L61.371 69.3424L65.6097 57.3329H66.5681C68.4601 57.3329 69.9987 55.7943 69.9987 53.9023V52.7637C69.9987 50.8716 68.4601 49.3331 66.5681 49.3331H62.4505C63.0356 46.9931 63.3323 44.6454 63.3323 42.3331C63.3323 42.2381 63.3302 42.1437 63.3292 42.049L66.7391 39.7757C67.3511 39.3678 67.5164 38.5398 67.1084 37.9264C66.6991 37.3131 65.8711 37.1478 65.2591 37.557L63.1272 38.9782C63.0003 37.9448 62.8158 36.9347 62.5766 35.9519C63.2528 35.1322 63.9211 34.3475 64.5709 33.5858C67.1642 30.5458 69.615 27.6752 71.1242 24.0964C72.1187 21.7377 72.6347 19.2661 72.6673 16.8235L74.5951 15.8596C75.2537 15.5294 75.5218 14.7294 75.1925 14.0708ZM17.5647 39.3754C17.37 39.2964 17.1797 39.2103 16.9917 39.1214L17.7327 38.1336C18.1741 37.5442 18.0553 36.7083 17.466 36.2669C16.8753 35.8254 16.0407 35.9454 15.5993 36.5336L14.7325 37.6892C13.6746 36.8117 12.8149 35.7426 12.2154 34.537C11.8032 33.7084 11.5369 32.8544 11.4132 32.0003H12.6658C13.4018 32.0003 13.9991 31.403 13.9991 30.667C13.9991 29.9311 13.4018 29.3338 12.6658 29.3338H11.5035C11.5907 28.9406 11.7108 28.5536 11.8646 28.1758C12.8458 25.7628 15.0239 24.1381 17.6197 23.5649L18.0258 25.5952C18.1511 26.2285 18.7085 26.6672 19.3311 26.6672C19.4178 26.6672 19.5058 26.6592 19.5938 26.6405C20.3164 26.4964 20.7844 25.7938 20.6391 25.0725L20.2947 23.3503C21.4427 23.4117 22.6177 23.6653 23.7659 24.1332C24.5592 24.4558 25.3192 24.8799 26.7259 25.8131C24.5067 28.3447 22.8397 31.3892 21.8219 34.7033C21.8049 34.7584 21.7877 34.8134 21.771 34.8686C21.7494 34.9403 21.7288 35.0123 21.708 35.0842C21.2067 36.799 20.876 38.5986 20.7389 40.4586C20.1656 40.2617 19.6799 40.1034 19.2486 39.9636C18.5955 39.7514 18.0782 39.5847 17.5647 39.3754ZM67.3322 52.764V53.9026C67.3322 54.324 66.9895 54.6666 66.5681 54.6666H17.4297C17.0083 54.6666 16.6657 54.324 16.6657 53.9026V52.764C16.6657 52.3426 17.0083 51.9999 17.4297 51.9999H22.3247H61.6739H66.5683C66.9895 51.9999 67.3322 52.3427 67.3322 52.764ZM56.8899 44.7399C57.1472 45.1253 57.5699 45.3332 58.0005 45.3332C58.2538 45.3332 58.5111 45.2612 58.7391 45.1092L60.6141 43.8592C60.4999 45.664 60.1899 47.5196 59.6936 49.3332H24.3031C23.6761 47.0574 23.3525 44.7962 23.3356 42.5964L23.3366 42.334C23.3441 40.0662 23.6734 37.8419 24.293 35.7378C24.2956 35.7287 24.2981 35.7197 24.3008 35.7108C24.3308 35.609 24.363 35.5083 24.3944 35.4072C26.1181 29.9003 29.8125 25.4372 34.5164 23.1035L35.4004 25.7555C35.5871 26.3141 36.1071 26.6675 36.6657 26.6675C36.8043 26.6675 36.9471 26.6449 37.0871 26.5981C37.7857 26.3649 38.1645 25.6102 37.9312 24.9114L36.9953 22.1038C38.5884 21.6025 40.2663 21.3335 41.9991 21.3335C42.0199 21.3335 42.0404 21.3343 42.0612 21.3343C42.2684 21.335 42.4748 21.3399 42.6804 21.3482C42.7312 21.3502 42.782 21.3521 42.8327 21.3544C50.7161 21.7371 57.4797 27.5236 59.8189 35.9981L60.0021 36.6606C60.3108 37.9442 60.517 39.28 60.6095 40.6572L57.2593 42.8907C56.6472 43.2987 56.4819 44.1267 56.8899 44.7399ZM68.667 23.061C67.3176 26.2583 65.1056 28.8516 62.543 31.8542C62.2434 32.2047 61.9413 32.5592 61.6355 32.9187C58.5769 24.8881 51.6743 19.2607 43.3405 18.7125C43.4807 15.9696 44.0459 14.4087 44.6645 12.9396C45.8679 10.0884 47.7473 7.7579 49.9755 6.10729L51.5233 8.68681C51.7727 9.10274 52.214 9.33352 52.6674 9.33352C52.9007 9.33352 53.138 9.27212 53.3527 9.1429C53.9833 8.76431 54.1886 7.94556 53.8086 7.31353L52.251 4.71729C55.4847 3.12589 59.151 2.83949 62.4713 4.23823C63.3977 4.6287 64.2558 5.13604 65.0392 5.74166L63.7234 7.05744C63.202 7.57884 63.202 8.42149 63.7234 8.94274C63.9834 9.20274 64.3248 9.33337 64.6661 9.33337C65.0075 9.33337 65.3487 9.20274 65.6087 8.94274L66.9505 7.60103C67.9267 8.7929 68.7003 10.1957 69.2287 11.7688C69.6012 12.8794 69.8386 14.0319 69.9425 15.2038L68.0701 16.1399C67.4114 16.4705 67.1434 17.2705 67.4728 17.9293C67.7075 18.3972 68.1781 18.6666 68.6675 18.6666C68.8675 18.6666 69.0715 18.6213 69.2622 18.5266L69.9189 18.1982C69.7519 19.8365 69.3351 21.4764 68.667 23.061Z" fill="#2C4C46"/>
<path d="M64.3418 20.0401L59.0085 21.3734C58.2952 21.5519 57.8605 22.276 58.0391 22.9907C58.1912 23.596 58.7338 24.0001 59.3312 24.0001C59.4391 24.0001 59.5471 23.988 59.6565 23.9601L64.9897 22.6268C65.703 22.4482 66.1377 21.7241 65.9591 21.0094C65.7804 20.2962 65.055 19.8601 64.3418 20.0401Z" fill="#2C4C46"/>
<path d="M32.2753 36.3906C31.7539 35.8692 30.9112 35.8692 30.39 36.3906C29.8687 36.912 29.8687 37.7546 30.39 38.2759L34.3899 42.2759C34.6499 42.5359 34.9914 42.6665 35.3326 42.6665C35.674 42.6665 36.0153 42.5359 36.2752 42.2759C36.7967 41.7544 36.7967 40.9118 36.2752 40.3906L32.2753 36.3906Z" fill="#2C4C46"/>
<path d="M50.2607 29.3599C49.5366 29.2131 48.8354 29.6825 48.6927 30.4052L47.3595 37.0719C47.2141 37.7933 47.6821 38.4959 48.4048 38.6398C48.4927 38.6584 48.5807 38.6665 48.6674 38.6665C49.2901 38.6665 49.8474 38.228 49.9727 37.5945L51.306 30.9278C51.4513 30.2066 50.9834 29.5039 50.2607 29.3599Z" fill="#2C4C46"/>
<path d="M65.9989 77.3334H58.5498L60.4553 71.9348L56.482 69.5775C55.8606 69.2054 55.0953 69.2654 54.558 69.7148L52.53 71.4042C51.1006 72.5962 49.4821 73.2615 47.8486 73.3295C46.0127 73.4148 44.4286 72.8109 43.4993 71.6936L38.3619 66.2483C37.3193 65.2069 36.6979 65.023 34.6352 65.8723C34.2526 66.0297 33.8365 66.3176 33.3938 66.623C32.4579 67.2683 31.3979 68.0003 29.9992 68.0003C27.3978 68.0003 25.7378 66.8523 25.1459 66.3576L20.2592 62.1136L19.9925 61.8789L25.4471 77.3334H16.6653C15.9294 77.3334 15.332 77.9307 15.332 78.6667C15.332 79.4026 15.9294 79.9999 16.6653 79.9999H26.3882V80.0001H57.6081V79.9999H65.9982C66.7342 79.9999 67.3315 79.4026 67.3315 78.6667C67.3315 77.9307 66.735 77.3334 65.9989 77.3334Z" fill="#2C4C46"/>
</svg>
