<svg width="144" height="144" viewBox="0 0 144 144" fill="none" xmlns="http://www.w3.org/2000/svg">
<path d="M55.5431 97.2718C55.5431 98.8506 57.2866 99.807 58.618 98.9584L98.2717 73.6866C99.5052 72.9005 99.5052 71.0995 98.2717 70.3134L58.618 45.0415C57.2866 44.193 55.5431 45.1494 55.5431 46.7281V97.2718ZM72.0131 143.25C62.2356 143.25 53.0231 141.38 44.3756 137.64C35.7281 133.9 28.1662 128.793 21.69 122.319C15.2137 115.846 10.1044 108.287 6.36187 99.6431C2.62062 91.0006 0.75 81.7906 0.75 72.0131C0.75 62.1581 2.62 52.895 6.36 44.2237C10.1 35.5525 15.2069 28.01 21.6806 21.5962C28.1544 15.1825 35.7131 10.1044 44.3569 6.36187C52.9994 2.62062 62.2094 0.75 71.9869 0.75C81.8419 0.75 91.105 2.62 99.7762 6.36C108.447 10.1 115.99 15.1756 122.404 21.5869C128.817 27.9981 133.896 35.5375 137.638 44.205C141.379 52.8725 143.25 62.1331 143.25 71.9869C143.25 81.7644 141.38 90.9769 137.64 99.6244C133.9 108.272 128.824 115.834 122.413 122.31C116.002 128.786 108.462 133.896 99.795 137.638C91.1275 141.379 81.8669 143.25 72.0131 143.25ZM72 134.739C89.4612 134.739 104.283 128.629 116.466 116.409C128.648 104.188 134.739 89.385 134.739 72C134.739 54.5387 128.648 39.7169 116.466 27.5344C104.283 15.3519 89.4612 9.26063 72 9.26063C54.615 9.26063 39.8119 15.3519 27.5906 27.5344C15.3706 39.7169 9.26062 54.5387 9.26062 72C9.26062 89.385 15.3706 104.188 27.5906 116.409C39.8119 128.629 54.615 134.739 72 134.739Z" fill="white"/>
</svg>
