<svg width="40" height="40" viewBox="0 0 40 40" fill="none" xmlns="http://www.w3.org/2000/svg">
<path d="M20 27.8141L12.9071 32.0962C12.7276 32.1923 12.545 32.236 12.3591 32.2274C12.173 32.2188 12.0041 32.1612 11.8525 32.0545C11.7008 31.9476 11.5871 31.807 11.5112 31.6328C11.4354 31.4587 11.4252 31.2648 11.4808 31.0512L13.3462 22.987L7.1058 17.5416C6.93691 17.4005 6.83164 17.2387 6.78997 17.0562C6.7483 16.8734 6.75525 16.6923 6.8108 16.5128C6.8558 16.3439 6.9515 16.2019 7.09789 16.0866C7.24427 15.971 7.42427 15.9048 7.63789 15.8878L15.8941 15.1603L19.1058 7.532C19.1955 7.34617 19.3221 7.20408 19.4854 7.10575C19.649 7.00742 19.8205 6.95825 20 6.95825C20.1794 6.95825 20.3509 7.00742 20.5146 7.10575C20.6779 7.20408 20.8044 7.34617 20.8941 7.532L24.1058 15.1603L32.3621 15.8878C32.5757 15.9048 32.7557 15.971 32.9021 16.0866C33.0484 16.2019 33.1494 16.3439 33.205 16.5128C33.25 16.6923 33.2516 16.8734 33.21 17.0562C33.1683 17.2387 33.063 17.4005 32.8941 17.5416L26.6537 22.987L28.535 31.0512C28.58 31.2648 28.5646 31.4587 28.4887 31.6328C28.4129 31.807 28.2991 31.9476 28.1475 32.0545C27.9958 32.1612 27.8269 32.2188 27.6408 32.2274C27.455 32.236 27.2723 32.1923 27.0929 32.0962L20 27.8141Z" fill="#FEC034"/>
</svg>
