<svg width="40" height="40" viewBox="0 0 40 40" fill="none" xmlns="http://www.w3.org/2000/svg">
<path d="M20.8201 1.28613C22.8664 1.25488 24.8976 1.27113 26.9276 1.25488C26.9951 3.79363 28.0251 6.07863 29.6639 7.77113L29.6614 7.76863C31.4251 9.35738 33.7201 10.3874 36.2501 10.5624L36.2851 10.5649V16.8599C33.8951 16.7999 31.6476 16.2486 29.6214 15.3011L29.7239 15.3436C28.7439 14.8724 27.9151 14.3886 27.1276 13.8486L27.1926 13.8911C27.1776 18.4524 27.2076 23.0136 27.1614 27.5586C27.0326 29.8749 26.2626 31.9874 25.0276 33.7511L25.0526 33.7124C22.9876 36.6699 19.6426 38.6111 15.8389 38.7261H15.8214C15.6676 38.7336 15.4864 38.7374 15.3039 38.7374C13.1414 38.7374 11.1201 38.1349 9.39763 37.0886L9.44763 37.1174C6.31263 35.2311 4.15013 32.0036 3.75013 28.2499L3.74513 28.1986C3.71388 27.4174 3.69888 26.6361 3.73013 25.8711C4.34263 19.8974 9.34763 15.2761 15.4314 15.2761C16.1151 15.2761 16.7851 15.3349 17.4364 15.4461L17.3664 15.4361C17.3976 17.7474 17.3039 20.0599 17.3039 22.3711C16.7751 22.1799 16.1651 22.0686 15.5289 22.0686C13.1939 22.0686 11.2076 23.5611 10.4726 25.6449L10.4614 25.6824C10.2951 26.2161 10.1989 26.8299 10.1989 27.4649C10.1989 27.7224 10.2151 27.9774 10.2451 28.2274L10.2426 28.1974C10.6576 30.7549 12.8501 32.6849 15.4939 32.6849C15.5701 32.6849 15.6451 32.6836 15.7201 32.6799H15.7089C17.5376 32.6249 19.1251 31.6411 20.0226 30.1874L20.0351 30.1649C20.3689 29.6999 20.5976 29.1374 20.6739 28.5261L20.6751 28.5086C20.8314 25.7124 20.7689 22.9324 20.7839 20.1361C20.7989 13.8411 20.7689 7.56113 20.8151 1.28238L20.8201 1.28613Z" fill="white"/>
</svg>
