<svg width="269" height="60" viewBox="0 0 269 60" fill="none" xmlns="http://www.w3.org/2000/svg">
<path d="M24.1866 49.4727C14.8727 49.4727 7.33545 41.9205 7.33545 32.6183C7.33545 23.3026 14.8862 15.7639 24.1866 15.7639C33.5006 15.7639 41.0378 23.3161 41.0378 32.6183C41.0378 41.934 33.4871 49.4727 24.1866 49.4727Z" fill="#2C4C46"/>
<path d="M24.3347 33.4799C8.47951 30.8414 -2.23419 15.8582 0.403859 0C16.2456 2.63855 26.9593 17.6217 24.3347 33.4799Z" fill="#41A50C"/>
<path d="M65.8107 41.4364C66.4433 41.4364 67.2777 41.3287 68.3276 41.1267V37.9766H65.703V30.7341H78.0856V49.4732H70.1581L69.3774 47.7904H69.1621C67.345 49.2578 65.1915 49.9982 62.7015 49.9982C54.5182 49.9982 50.4131 44.4653 50.4131 33.413C50.4131 27.8802 51.5302 23.6531 53.751 20.7319C55.9718 17.8106 59.727 16.3433 65.0166 16.3433C68.9332 16.3433 72.648 16.8817 76.1475 17.9722L74.4112 27.8398C70.4945 26.7494 67.6815 26.2109 65.9856 26.2109C64.2897 26.2109 63.1726 26.7763 62.6208 27.8936C62.0824 29.011 61.8132 30.9226 61.8132 33.615C61.8132 36.3074 62.0689 38.2863 62.5804 39.5517C63.0919 40.8171 64.1686 41.4364 65.8107 41.4364Z" fill="#2C4C46"/>
<path d="M108.288 27.3681C108.288 29.4682 107.952 31.1375 107.266 32.376C106.579 33.6145 105.529 34.7184 104.089 35.6607L108.975 49.4727H97.3729L94.1157 38.2319H93.2812V49.4727H82.5137V16.8678H96.4172C100.482 16.8678 103.47 17.7159 105.395 19.4121C107.319 21.1083 108.288 23.7603 108.288 27.3681ZM96.0808 31.124C96.4172 30.6529 96.5788 29.8182 96.5788 28.6336C96.5788 27.4489 96.4038 26.6277 96.0538 26.17C95.7039 25.7123 95.1655 25.4835 94.4252 25.4835H93.0659V31.8375H94.3849C95.1924 31.8375 95.7577 31.5952 96.0942 31.124H96.0808Z" fill="#2C4C46"/>
<path d="M111.007 32.9549C111.007 27.1258 112.165 22.8988 114.493 20.2737C116.822 17.6486 120.658 16.3293 125.988 16.3293C131.318 16.3293 135.14 17.6217 137.428 20.2199C139.716 22.8046 140.86 27.0181 140.86 32.8472C140.86 38.6762 139.676 42.984 137.32 45.7841C134.965 48.5842 131.143 49.9843 125.88 49.9843C120.617 49.9843 116.822 48.5977 114.493 45.838C112.165 43.0783 111.007 38.7704 111.007 32.9549ZM128.908 26.7085C128.451 25.82 127.468 25.3623 125.974 25.3623C124.48 25.3623 123.511 25.8066 123.08 26.6816C122.663 27.5566 122.448 29.4278 122.448 32.2952V34.6107C122.448 37.5454 122.677 39.457 123.134 40.332C123.592 41.2071 124.588 41.6513 126.122 41.6513C127.657 41.6513 128.626 41.234 129.003 40.3859C129.379 39.5378 129.581 37.68 129.581 34.7722V32.3626C129.581 29.4952 129.352 27.6105 128.895 26.722L128.908 26.7085Z" fill="#2C4C46"/>
<path d="M180.458 16.8678L176.999 49.4727H164.509L162.046 36.2396H161.628L159.529 49.4727H147.038L143 16.8678H153.283L154.603 31.8375H155.074L157.066 16.8678H166.985L169.193 31.8375H169.556L170.552 16.8678H180.472H180.458Z" fill="#2C4C46"/>
<path d="M194.994 49.4727H183.917V16.8678H194.994V49.4727Z" fill="#2C4C46"/>
<path d="M227.176 49.4727H216.462L209.853 36.6165H209.49V49.4727H199.517V16.8678H210.594L216.785 30.1548H217.095V16.8678H227.176V49.4727Z" fill="#2C4C46"/>
<path d="M245.763 41.4359C246.396 41.4359 247.23 41.3282 248.28 41.1263V37.9762H245.655V30.7336H258.038V49.4727H250.11L249.33 47.7899H249.114C247.297 49.2573 245.144 49.9977 242.654 49.9977C234.471 49.9977 230.365 44.4648 230.365 33.4125C230.365 27.8797 231.483 23.6526 233.703 20.7314C235.924 17.8101 239.679 16.3428 244.969 16.3428C248.886 16.3428 252.6 16.8813 256.1 17.9717L254.364 27.8393C250.447 26.7489 247.634 26.2104 245.938 26.2104C244.242 26.2104 243.125 26.7758 242.573 27.8931C242.035 29.0105 241.766 30.9221 241.766 33.6145C241.766 36.3069 242.021 38.2858 242.533 39.5512C243.044 40.8166 244.121 41.4359 245.763 41.4359Z" fill="#2C4C46"/>
</svg>
